Girassol-Regular.ufo
<glyph name="exclam" format="2">
  <advance width="317"/>
  <unicode hex="0021"/>
  <outline>
    <contour>
      <point x="122" y="689" type="curve"/>
      <point x="122" y="552"/>
      <point x="134" y="294"/>
      <point x="156" y="192" type="curve"/>
      <point x="200" y="192" type="line"/>
      <point x="221" y="294"/>
      <point x="232" y="552"/>
      <point x="233" y="689" type="curve"/>
      <point x="233" y="734"/>
      <point x="213" y="760"/>
      <point x="179" y="760" type="curve"/>
      <point x="142" y="760"/>
      <point x="122" y="736"/>
    </contour>
    <component base="period" xOffset="40"/>
  </outline>
</glyph>
<glyph name="quotedbl" format="2">
  <advance width="411"/>
  <unicode hex="0022"/>
  <outline>
    <contour>
      <point x="184" y="641" type="line"/>
      <point x="184" y="842" type="line"/>
      <point x="117" y="841" type="line"/>
      <point x="117" y="641" type="line"/>
    </contour>
    <contour>
      <point x="294" y="641" type="line"/>
      <point x="294" y="842" type="line"/>
      <point x="227" y="841" type="line"/>
      <point x="227" y="641" type="line"/>
    </contour>
  </outline>
</glyph>
<glyph name="dollar" format="2">
  <advance width="540"/>
  <unicode hex="0024"/>
  <outline>
    <contour>
      <point x="243" y="0" type="line"/>
      <point x="283" y="0" type="line"/>
      <point x="283" y="115" type="line"/>
      <point x="243" y="115" type="line"/>
    </contour>
    <contour>
      <point x="243" y="635" type="line"/>
      <point x="283" y="635" type="line"/>
      <point x="283" y="750" type="line"/>
      <point x="243" y="750" type="line"/>
    </contour>
    <component base="s" xOffset="58" yOffset="99"/>
  </outline>
</glyph>
<glyph name="percent" format="2">
  <advance width="880"/>
  <unicode hex="0025"/>
  <outline>
    <contour>
      <point x="377" y="512" type="curve"/>
      <point x="377" y="619"/>
      <point x="309" y="682"/>
      <point x="208" y="682" type="curve"/>
      <point x="103" y="682"/>
      <point x="38" y="621"/>
      <point x="38" y="512" type="curve"/>
      <point x="38" y="404"/>
      <point x="104" y="342"/>
      <point x="208" y="342" type="curve"/>
      <point x="313" y="342"/>
      <point x="377" y="403"/>
    </contour>
    <contour>
      <point x="124" y="514" type="curve"/>
      <point x="124" y="608"/>
      <point x="153" y="651"/>
      <point x="207" y="651" type="curve"/>
      <point x="263" y="651"/>
      <point x="292" y="608"/>
      <point x="292" y="514" type="curve"/>
      <point x="292" y="420"/>
      <point x="262" y="376"/>
      <point x="208" y="376" type="curve"/>
      <point x="153" y="376"/>
      <point x="124" y="420"/>
    </contour>
    <contour>
      <point x="838" y="225" type="curve"/>
      <point x="838" y="332"/>
      <point x="770" y="395"/>
      <point x="669" y="395" type="curve"/>
      <point x="564" y="395"/>
      <point x="499" y="334"/>
      <point x="499" y="225" type="curve"/>
      <point x="499" y="117"/>
      <point x="565" y="55"/>
      <point x="669" y="55" type="curve"/>
      <point x="774" y="55"/>
      <point x="838" y="116"/>
    </contour>
    <contour>
      <point x="585" y="227" type="curve"/>
      <point x="585" y="321"/>
      <point x="614" y="364"/>
      <point x="668" y="364" type="curve"/>
      <point x="724" y="364"/>
      <point x="753" y="321"/>
      <point x="753" y="227" type="curve"/>
      <point x="753" y="133"/>
      <point x="723" y="89"/>
      <point x="669" y="89" type="curve"/>
      <point x="614" y="89"/>
      <point x="585" y="133"/>
    </contour>
    <component base="slash" xOffset="156"/>
  </outline>
</glyph>
<glyph name="ampersand" format="2">
  <advance width="624"/>
  <unicode hex="0026"/>
  <outline>
    <contour>
      <point x="189" y="614" type="line" smooth="yes"/>
      <point x="189" y="672"/>
      <point x="232" y="719"/>
      <point x="283" y="719" type="curve"/>
      <point x="336" y="719"/>
      <point x="357" y="697"/>
      <point x="396" y="598" type="curve"/>
      <point x="430" y="607" type="line"/>
      <point x="386" y="788" type="line"/>
      <point x="352" y="788" type="line"/>
      <point x="335" y="754"/>
      <point x="301" y="759"/>
      <point x="274" y="759" type="curve"/>
      <point x="142" y="759"/>
      <point x="72" y="685"/>
      <point x="72" y="566" type="curve"/>
      <point x="72" y="483"/>
      <point x="95" y="432"/>
      <point x="177" y="393" type="curve"/>
      <point x="177" y="419" type="line"/>
      <point x="94" y="380"/>
      <point x="72" y="326"/>
      <point x="72" y="234" type="curve" smooth="yes"/>
      <point x="72" y="209" type="line" smooth="yes"/>
      <point x="72" y="68"/>
      <point x="130" y="-5"/>
      <point x="257" y="-5" type="curve"/>
      <point x="380" y="-5"/>
      <point x="433" y="65"/>
      <point x="433" y="209" type="curve" smooth="yes"/>
      <point x="433" y="260" type="line"/>
      <point x="502" y="280"/>
      <point x="552" y="343"/>
      <point x="552" y="408" type="curve" smooth="yes"/>
      <point x="552" y="454"/>
      <point x="511" y="489"/>
      <point x="472" y="489" type="curve" smooth="yes"/>
      <point x="429" y="489"/>
      <point x="393" y="451"/>
      <point x="393" y="407" type="curve" smooth="yes"/>
      <point x="393" y="365"/>
      <point x="427" y="337"/>
      <point x="468" y="337" type="curve"/>
      <point x="468" y="337"/>
      <point x="452" y="301"/>
      <point x="386" y="301" type="curve" smooth="yes"/>
      <point x="339" y="301"/>
      <point x="326" y="280"/>
      <point x="326" y="245" type="curve" smooth="yes"/>
      <point x="326" y="131" type="line" smooth="yes"/>
      <point x="326" y="68"/>
      <point x="300" y="35"/>
      <point x="257" y="35" type="curve"/>
      <point x="213" y="35"/>
      <point x="189" y="72"/>
      <point x="189" y="131" type="curve"/>
      <point x="189" y="285" type="line" smooth="yes"/>
      <point x="189" y="359"/>
      <point x="208" y="385"/>
      <point x="257" y="385" type="curve" smooth="yes"/>
      <point x="282" y="385" type="line"/>
      <point x="282" y="429" type="line"/>
      <point x="257" y="429" type="line" smooth="yes"/>
      <point x="214" y="429"/>
      <point x="189" y="461"/>
      <point x="189" y="525" type="curve" smooth="yes"/>
    </contour>
  </outline>
</glyph>
<glyph name="quotesingle" format="2">
  <advance width="211"/>
  <unicode hex="0027"/>
  <outline>
    <contour>
      <point x="139" y="641" type="line"/>
      <point x="139" y="842" type="line"/>
      <point x="72" y="841" type="line"/>
      <point x="72" y="641" type="line"/>
    </contour>
  </outline>
</glyph>
<glyph name="parenright" format="2">
  <advance width="276"/>
  <unicode hex="0029"/>
  <outline>
    <contour>
      <point x="178" y="45" type="line" smooth="yes"/>
      <point x="178" y="-98"/>
      <point x="149" y="-144"/>
      <point x="24" y="-200" type="curve"/>
      <point x="24" y="-250" type="line"/>
      <point x="221" y="-201"/>
      <point x="276" y="-122"/>
      <point x="276" y="114" type="curve" smooth="yes"/>
      <point x="276" y="436" type="line" smooth="yes"/>
      <point x="276" y="671"/>
      <point x="221" y="750"/>
      <point x="24" y="800" type="curve"/>
      <point x="24" y="750" type="line"/>
      <point x="149" y="702"/>
      <point x="178" y="657"/>
      <point x="178" y="516" type="curve" smooth="yes"/>
    </contour>
  </outline>
</glyph>
<glyph name="asterisk" format="2">
  <advance width="388"/>
  <unicode hex="002A"/>
  <outline>
    <contour>
      <point x="228" y="574" type="curve" smooth="yes"/>
      <point x="228" y="596"/>
      <point x="211" y="608"/>
      <point x="206" y="649" type="curve"/>
      <point x="247" y="643"/>
      <point x="259" y="627"/>
      <point x="281" y="627" type="curve" smooth="yes"/>
      <point x="308" y="627"/>
      <point x="316" y="645"/>
      <point x="316" y="662" type="curve"/>
      <point x="316" y="677"/>
      <point x="308" y="695"/>
      <point x="281" y="695" type="curve" smooth="yes"/>
      <point x="259" y="695"/>
      <point x="247" y="680"/>
      <point x="206" y="673" type="curve"/>
      <point x="211" y="715"/>
      <point x="228" y="726"/>
      <point x="228" y="748" type="curve" smooth="yes"/>
      <point x="228" y="774"/>
      <point x="209" y="783.0"/>
      <point x="194" y="783.0" type="curve"/>
      <point x="176" y="783.0"/>
      <point x="160" y="774"/>
      <point x="160" y="748" type="curve" smooth="yes"/>
      <point x="160" y="726"/>
      <point x="174" y="715"/>
      <point x="182" y="673" type="curve"/>
      <point x="140" y="680"/>
      <point x="127" y="695"/>
      <point x="106" y="695" type="curve" smooth="yes"/>
      <point x="81" y="695"/>
      <point x="72" y="677"/>
      <point x="72" y="662" type="curve"/>
      <point x="72" y="645"/>
      <point x="81" y="627"/>
      <point x="107" y="627" type="curve" smooth="yes"/>
      <point x="129" y="627"/>
      <point x="140" y="643"/>
      <point x="182" y="649" type="curve"/>
      <point x="174" y="608"/>
      <point x="160" y="596"/>
      <point x="160" y="574" type="curve" smooth="yes"/>
      <point x="160" y="547"/>
      <point x="176" y="539"/>
      <point x="194" y="539" type="curve"/>
      <point x="209" y="539"/>
      <point x="228" y="547"/>
    </contour>
  </outline>
</glyph>
<glyph name="comma" format="2">
  <advance width="181"/>
  <unicode hex="002C"/>
  <outline>
    <contour>
      <point x="71" y="-68" type="line"/>
      <point x="122" y="-49"/>
      <point x="157" y="-6"/>
      <point x="157" y="46" type="curve"/>
      <point x="157" y="88"/>
      <point x="128" y="120"/>
      <point x="90" y="121" type="curve" smooth="yes"/>
      <point x="54" y="122"/>
      <point x="24" y="92"/>
      <point x="24" y="55" type="curve" smooth="yes"/>
      <point x="24" y="-3"/>
      <point x="89" y="-7"/>
      <point x="89" y="-7" type="curve"/>
      <point x="89" y="-7"/>
      <point x="81" y="-28"/>
      <point x="55" y="-38" type="curve"/>
    </contour>
  </outline>
</glyph>
<glyph name="period" format="2">
  <advance width="277"/>
  <unicode hex="002E"/>
  <outline>
    <contour>
      <point x="205" y="57" type="curve"/>
      <point x="205" y="99"/>
      <point x="176" y="131"/>
      <point x="138" y="132" type="curve" smooth="yes"/>
      <point x="102" y="133"/>
      <point x="72" y="103"/>
      <point x="72" y="66" type="curve"/>
      <point x="72" y="24"/>
      <point x="101" y="-6"/>
      <point x="139" y="-7" type="curve" smooth="yes"/>
      <point x="175" y="-8"/>
      <point x="205" y="20"/>
    </contour>
  </outline>
</glyph>
<glyph name="slash" format="2">
  <advance width="539"/>
  <unicode hex="002F"/>
  <outline>
    <contour>
      <point x="207" y="-40" type="line"/>
      <point x="426" y="790" type="line"/>
      <point x="349" y="790" type="line"/>
      <point x="130" y="-40" type="line"/>
    </contour>
  </outline>
</glyph>
<glyph name="seven" format="2">
  <advance width="540"/>
  <unicode hex="0037"/>
  <outline>
    <contour>
      <point x="147" y="371" type="line"/>
      <point x="420" y="371" type="line"/>
      <point x="420" y="417" type="line"/>
      <point x="147" y="417" type="line"/>
    </contour>
    <contour>
      <point x="502" y="709" type="curve"/>
      <point x="506" y="750" type="line"/>
      <point x="193" y="750" type="line" smooth="yes"/>
      <point x="158" y="750"/>
      <point x="145" y="755"/>
      <point x="144" y="769" type="curve"/>
      <point x="111" y="769" type="line"/>
      <point x="70" y="546" type="line"/>
      <point x="103" y="537" type="line"/>
      <point x="143" y="636"/>
      <point x="161" y="650"/>
      <point x="249" y="650" type="curve" smooth="yes"/>
      <point x="411" y="650" type="line"/>
      <point x="434" y="705" type="line"/>
      <point x="274" y="499"/>
      <point x="196" y="301"/>
      <point x="166" y="0" type="curve"/>
      <point x="283" y="0" type="line"/>
      <point x="273" y="281"/>
      <point x="345" y="505"/>
    </contour>
  </outline>
</glyph>
<glyph name="question" format="2">
  <advance width="579"/>
  <unicode hex="003F"/>
  <outline>
    <contour>
      <point x="266" y="195" type="curve"/>
      <point x="322" y="195" type="line"/>
      <point x="322" y="406"/>
      <point x="525" y="381"/>
      <point x="525" y="572" type="curve"/>
      <point x="525" y="682"/>
      <point x="433" y="760"/>
      <point x="305" y="760" type="curve"/>
      <point x="193" y="760"/>
      <point x="112" y="694"/>
      <point x="112" y="604" type="curve"/>
      <point x="112" y="555"/>
      <point x="147" y="516"/>
      <point x="192" y="515" type="curve" smooth="yes"/>
      <point x="234" y="514"/>
      <point x="270" y="548"/>
      <point x="270" y="588" type="curve"/>
      <point x="270" y="629"/>
      <point x="233" y="661"/>
      <point x="176" y="668" type="curve"/>
      <point x="190" y="634" type="line"/>
      <point x="209" y="685"/>
      <point x="245" y="710"/>
      <point x="296" y="710" type="curve"/>
      <point x="365" y="710"/>
      <point x="413" y="654"/>
      <point x="413" y="574" type="curve"/>
      <point x="412" y="402"/>
      <point x="266" y="469"/>
    </contour>
    <component base="period" xOffset="155"/>
  </outline>
</glyph>
<glyph name="at" format="2">
  <advance width="838"/>
  <unicode hex="0040"/>
  <outline>
    <contour>
      <point x="530" y="372" type="curve"/>
      <point x="512" y="409"/>
      <point x="461" y="434"/>
      <point x="403" y="434" type="curve"/>
      <point x="297" y="434"/>
      <point x="231" y="376"/>
      <point x="231" y="290" type="curve"/>
      <point x="231" y="183"/>
      <point x="292" y="126"/>
      <point x="403" y="126" type="curve"/>
      <point x="480" y="126"/>
      <point x="535" y="174"/>
      <point x="556" y="259" type="curve"/>
      <point x="556" y="259"/>
      <point x="494" y="260"/>
      <point x="494" y="260" type="curve"/>
      <point x="494" y="204"/>
      <point x="456" y="165"/>
      <point x="402" y="165" type="curve"/>
      <point x="358" y="165"/>
      <point x="330" y="202"/>
      <point x="330" y="260" type="curve" smooth="yes"/>
      <point x="330" y="299" type="line" smooth="yes"/>
      <point x="330" y="354"/>
      <point x="361" y="395"/>
      <point x="402" y="395" type="curve"/>
      <point x="468" y="395"/>
      <point x="514" y="351"/>
      <point x="514" y="289" type="curve"/>
      <point x="514" y="289"/>
      <point x="532" y="370"/>
    </contour>
    <contour>
      <point x="717" y="120"/>
      <point x="766" y="208"/>
      <point x="766" y="365" type="curve"/>
      <point x="766" y="611"/>
      <point x="636" y="750"/>
      <point x="428" y="750" type="curve"/>
      <point x="202" y="750"/>
      <point x="72" y="618"/>
      <point x="72" y="366" type="curve"/>
      <point x="72" y="127"/>
      <point x="203" y="-6"/>
      <point x="429" y="-6" type="curve"/>
      <point x="429" y="-6"/>
      <point x="428" y="49"/>
      <point x="428" y="49" type="curve"/>
      <point x="238" y="49"/>
      <point x="136" y="164"/>
      <point x="136" y="366" type="curve"/>
      <point x="136" y="578"/>
      <point x="238" y="693"/>
      <point x="428" y="693" type="curve"/>
      <point x="604" y="693"/>
      <point x="705" y="573"/>
      <point x="705" y="366" type="curve"/>
      <point x="705" y="233"/>
      <point x="681" y="176"/>
      <point x="630" y="176" type="curve" smooth="yes"/>
      <point x="610" y="176"/>
      <point x="594" y="197"/>
      <point x="594" y="221" type="curve" smooth="yes"/>
      <point x="594" y="222"/>
      <point x="594" y="222"/>
      <point x="594" y="223" type="curve" smooth="yes"/>
      <point x="594" y="392" type="line" smooth="yes"/>
      <point x="594" y="534"/>
      <point x="527" y="606"/>
      <point x="396" y="606" type="curve" smooth="yes"/>
      <point x="348" y="606"/>
      <point x="330" y="594"/>
      <point x="321" y="616" type="curve"/>
      <point x="287" y="616" type="line"/>
      <point x="254" y="478" type="line"/>
      <point x="290" y="469" type="line"/>
      <point x="320" y="545"/>
      <point x="346" y="566"/>
      <point x="397" y="566" type="curve" smooth="yes"/>
      <point x="451" y="566"/>
      <point x="493" y="520"/>
      <point x="493" y="460" type="curve" smooth="yes"/>
      <point x="493" y="202" type="line"/>
      <point x="493" y="202"/>
      <point x="532" y="120"/>
      <point x="630" y="120" type="curve" smooth="yes"/>
    </contour>
  </outline>
</glyph>
<glyph name="B" format="2">
  <advance width="494"/>
  <unicode hex="0042"/>
  <outline>
    <contour>
      <point x="86" y="11" type="line"/>
      <point x="198" y="11" type="line"/>
      <point x="198" y="739" type="line"/>
      <point x="86" y="739" type="line"/>
    </contour>
    <contour>
      <point x="86" y="0" type="line"/>
      <point x="282" y="0" type="line" smooth="yes"/>
      <point x="410.0" y="0.0"/>
      <point x="470" y="68"/>
      <point x="470" y="213" type="curve"/>
      <point x="470" y="316"/>
      <point x="432" y="374"/>
      <point x="342" y="412" type="curve"/>
      <point x="343" y="388" type="line"/>
      <point x="421" y="425"/>
      <point x="447" y="469"/>
      <point x="447" y="563" type="curve"/>
      <point x="447" y="684"/>
      <point x="382" y="750"/>
      <point x="262" y="750" type="curve" smooth="yes"/>
      <point x="86" y="750" type="line"/>
      <point x="86" y="670" type="line"/>
      <point x="198" y="670" type="line"/>
      <point x="198" y="710" type="line"/>
      <point x="262" y="710" type="line" smooth="yes"/>
      <point x="307" y="710"/>
      <point x="335" y="673"/>
      <point x="335" y="614" type="curve" smooth="yes"/>
      <point x="335" y="513" type="line" smooth="yes"/>
      <point x="335" y="454"/>
      <point x="306" y="415"/>
      <point x="262" y="415" type="curve" smooth="yes"/>
      <point x="239" y="415" type="line"/>
      <point x="239" y="375" type="line"/>
      <point x="282" y="375" type="line" smooth="yes"/>
      <point x="326" y="375"/>
      <point x="355" y="336"/>
      <point x="355" y="277" type="curve" smooth="yes"/>
      <point x="355" y="136" type="line" smooth="yes"/>
      <point x="355" y="78"/>
      <point x="326" y="40"/>
      <point x="282" y="40" type="curve" smooth="yes"/>
      <point x="198" y="40" type="line"/>
      <point x="198" y="79" type="line"/>
      <point x="86" y="79" type="line"/>
    </contour>
    <component base="smallcomponent_top_half_serif" xOffset="-10" yOffset="210"/>
    <component base="smallcomponents_btm_half_serif" xOffset="-10"/>
  </outline>
</glyph>
<glyph name="H" format="2">
  <advance width="548"/>
  <unicode hex="0048"/>
  <outline>
    <contour>
      <point x="86" y="11" type="line"/>
      <point x="198" y="11" type="line"/>
      <point x="198" y="739" type="line"/>
      <point x="86" y="739" type="line"/>
    </contour>
    <contour>
      <point x="361" y="11" type="line"/>
      <point x="471" y="11" type="line"/>
      <point x="471" y="739" type="line"/>
      <point x="361" y="739" type="line"/>
    </contour>
    <contour>
      <point x="129" y="372" type="line"/>
      <point x="425" y="372" type="line"/>
      <point x="425" y="415" type="line"/>
      <point x="129" y="415" type="line"/>
    </contour>
    <contour>
      <point x="86" y="80" type="line"/>
      <point x="86" y="48"/>
      <point x="71" y="37"/>
      <point x="26" y="37" type="curve"/>
      <point x="26" y="0" type="line"/>
      <point x="258" y="0" type="line"/>
      <point x="258" y="37" type="line"/>
      <point x="213" y="37"/>
      <point x="198" y="48"/>
      <point x="198" y="80" type="curve"/>
    </contour>
    <component base="smallcomponent_top_serif" xOffset="265" yOffset="210"/>
    <component base="smallcomponent_bottom_serif" xOffset="265"/>
    <component base="component_top_serif" xOffset="-10"/>
  </outline>
</glyph>
<glyph name="M" format="2">
  <advance width="736"/>
  <unicode hex="004D"/>
  <guideline x="720" y="546" angle="90" identifier="VPgU8CNrLG"/>
  <outline>
    <contour>
      <point x="514" y="750" type="line"/>
      <point x="351" y="107" type="line"/>
      <point x="380" y="178" type="line"/>
      <point x="227" y="750" type="line"/>
      <point x="90" y="750" type="line"/>
      <point x="90" y="11" type="line"/>
      <point x="137" y="11" type="line"/>
      <point x="137" y="710" type="line"/>
      <point x="117" y="710" type="line"/>
      <point x="322" y="0" type="line"/>
      <point x="368" y="0" type="line"/>
      <point x="547" y="697" type="line"/>
      <point x="536" y="697" type="line"/>
      <point x="536" y="11" type="line"/>
      <point x="646" y="11" type="line"/>
      <point x="646" y="750" type="line"/>
    </contour>
    <contour>
      <point x="646" y="670" type="line"/>
      <point x="646" y="702"/>
      <point x="661" y="713"/>
      <point x="706" y="713" type="curve"/>
      <point x="706" y="750" type="line"/>
      <point x="589" y="750" type="line"/>
      <point x="589" y="670" type="line"/>
    </contour>
    <contour>
      <point x="30" y="37" type="curve"/>
      <point x="30" y="0" type="line"/>
      <point x="197" y="0" type="line"/>
      <point x="197" y="37" type="line"/>
      <point x="154" y="37"/>
      <point x="137" y="49"/>
      <point x="137" y="80" type="curve"/>
      <point x="90" y="80" type="line"/>
      <point x="90" y="49"/>
      <point x="73" y="37"/>
    </contour>
    <component base="smallcomponent_bottom_serif" xOffset="440"/>
    <component base="smallcomponent_top_half_serif" xOffset="-6" yOffset="210"/>
  </outline>
</glyph>
<glyph name="P" format="2">
  <advance width="498"/>
  <unicode hex="0050"/>
  <outline>
    <contour>
      <point x="90" y="11" type="line"/>
      <point x="202" y="11" type="line"/>
      <point x="202" y="739" type="line"/>
      <point x="90" y="739" type="line"/>
    </contour>
    <contour>
      <point x="90" y="670" type="line"/>
      <point x="202" y="670" type="line"/>
      <point x="202" y="710" type="line"/>
      <point x="286" y="710" type="line" smooth="yes"/>
      <point x="329" y="710"/>
      <point x="359.0" y="671.0"/>
      <point x="359" y="614" type="curve" smooth="yes"/>
      <point x="359" y="400" type="line" smooth="yes"/>
      <point x="359" y="341"/>
      <point x="330" y="302"/>
      <point x="286" y="302" type="curve" smooth="yes"/>
      <point x="242" y="302" type="line"/>
      <point x="242" y="262" type="line"/>
      <point x="286" y="262" type="line" smooth="yes"/>
      <point x="412.0" y="262.0"/>
      <point x="474" y="333"/>
      <point x="474" y="474" type="curve" smooth="yes"/>
      <point x="474" y="537" type="line" smooth="yes"/>
      <point x="474" y="679"/>
      <point x="412.0" y="750.0"/>
      <point x="286" y="750" type="curve" smooth="yes"/>
      <point x="90" y="750" type="line"/>
    </contour>
    <component base="component_bottom_serif" xOffset="-6"/>
    <component base="smallcomponent_top_half_serif" xOffset="-6" yOffset="210"/>
  </outline>
</glyph>
<glyph name="R" format="2">
  <advance width="534"/>
  <unicode hex="0052"/>
  <outline>
    <contour>
      <point x="86" y="11" type="line"/>
      <point x="198" y="11" type="line"/>
      <point x="198" y="739" type="line"/>
      <point x="86" y="739" type="line"/>
    </contour>
    <contour>
      <point x="270" y="323" type="line" smooth="yes"/>
      <point x="313.0" y="323.0"/>
      <point x="343" y="282"/>
      <point x="343" y="223" type="curve" smooth="yes"/>
      <point x="343" y="195" type="line" smooth="yes"/>
      <point x="343" y="61"/>
      <point x="402" y="0"/>
      <point x="531" y="0" type="curve"/>
      <point x="542" y="0" type="line"/>
      <point x="542" y="37" type="line"/>
      <point x="531" y="37" type="line" smooth="yes"/>
      <point x="487" y="37"/>
      <point x="458" y="77"/>
      <point x="458" y="136" type="curve" smooth="yes"/>
      <point x="458" y="149" type="line" smooth="yes"/>
      <point x="458.0" y="253.0"/>
      <point x="426" y="312"/>
      <point x="345" y="355" type="curve"/>
      <point x="344" y="328" type="line"/>
      <point x="432" y="371"/>
      <point x="464" y="427"/>
      <point x="464" y="535" type="curve"/>
      <point x="464" y="678"/>
      <point x="402" y="750"/>
      <point x="276" y="750" type="curve" smooth="yes"/>
      <point x="86" y="750" type="line"/>
      <point x="86" y="670" type="line"/>
      <point x="198" y="670" type="line"/>
      <point x="198" y="710" type="line"/>
      <point x="276" y="710" type="line" smooth="yes"/>
      <point x="322.0" y="710.0"/>
      <point x="351" y="673"/>
      <point x="351" y="614" type="curve" smooth="yes"/>
      <point x="351" y="461" type="line" smooth="yes"/>
      <point x="351" y="402"/>
      <point x="321" y="363"/>
      <point x="276" y="363" type="curve" smooth="yes"/>
      <point x="246" y="363" type="line"/>
      <point x="246" y="323" type="line"/>
    </contour>
    <component base="component_bottom_serif" xOffset="-10"/>
    <component base="smallcomponent_top_half_serif" xOffset="-10" yOffset="210"/>
  </outline>
</glyph>
<glyph name="S" format="2">
  <advance width="417"/>
  <unicode hex="0053"/>
  <outline>
    <contour>
      <point x="210" y="720.0" type="curve"/>
      <point x="263" y="720.0"/>
      <point x="284" y="697.0"/>
      <point x="323" y="598.0" type="curve"/>
      <point x="357" y="607.0" type="line"/>
      <point x="313" y="788.0" type="line"/>
      <point x="279" y="788.0" type="line"/>
      <point x="268" y="766.0"/>
      <point x="251" y="760.0"/>
      <point x="201" y="760.0" type="curve"/>
      <point x="109.0" y="760.0"/>
      <point x="24" y="685.0"/>
      <point x="24" y="602" type="curve"/>
      <point x="24" y="538.0"/>
      <point x="48" y="489"/>
      <point x="118" y="408" type="curve" smooth="yes"/>
      <point x="202" y="311" type="line" smooth="yes"/>
      <point x="258" y="247"/>
      <point x="282" y="197"/>
      <point x="282" y="145" type="curve"/>
      <point x="282.0" y="81"/>
      <point x="247.0" y="41.0"/>
      <point x="191" y="41" type="curve" smooth="yes"/>
      <point x="127" y="41"/>
      <point x="76" y="105"/>
      <point x="57" y="212" type="curve"/>
      <point x="23" y="212" type="line"/>
      <point x="23" y="0" type="line"/>
      <point x="58" y="0" type="line"/>
      <point x="60.0" y="9.0"/>
      <point x="75.0" y="18.0"/>
      <point x="88" y="18" type="curve"/>
      <point x="107" y="18"/>
      <point x="134.0" y="-10.0"/>
      <point x="208" y="-10" type="curve" smooth="yes"/>
      <point x="309" y="-10"/>
      <point x="393" y="69"/>
      <point x="393" y="167" type="curve"/>
      <point x="393.0" y="248.0"/>
      <point x="369" y="298"/>
      <point x="284" y="398" type="curve" smooth="yes"/>
      <point x="183" y="516" type="line" smooth="yes"/>
      <point x="142" y="563"/>
      <point x="125.0" y="597.0"/>
      <point x="125" y="634" type="curve"/>
      <point x="125.0" y="680.0"/>
      <point x="165.0" y="720.0"/>
    </contour>
  </outline>
</glyph>
<glyph name="T" format="2">
  <advance width="520"/>
  <unicode hex="0054"/>
  <outline>
    <contour>
      <point x="201" y="11" type="line"/>
      <point x="313" y="11" type="line"/>
      <point x="313" y="731" type="line"/>
      <point x="201" y="731" type="line"/>
    </contour>
    <contour>
      <point x="332" y="713" type="line" smooth="yes"/>
      <point x="413.0" y="713.0"/>
      <point x="441" y="684"/>
      <point x="475" y="567" type="curve"/>
      <point x="512" y="576" type="line"/>
      <point x="468" y="787" type="line"/>
      <point x="434" y="787" type="line"/>
      <point x="430" y="759"/>
      <point x="419.0" y="750.0"/>
      <point x="388" y="750" type="curve" smooth="yes"/>
      <point x="132" y="750" type="line" smooth="yes"/>
      <point x="101.0" y="750.0"/>
      <point x="91" y="758"/>
      <point x="86" y="787" type="curve"/>
      <point x="52" y="787" type="line"/>
      <point x="8" y="576" type="line"/>
      <point x="45" y="567" type="line"/>
      <point x="79" y="684"/>
      <point x="107.0" y="713.0"/>
      <point x="188" y="713" type="curve" smooth="yes"/>
    </contour>
    <component base="component_bottom_serif" xOffset="105"/>
  </outline>
</glyph>
<glyph name="W" format="2">
  <advance width="800"/>
  <unicode hex="0057"/>
  <outline>
    <contour>
      <point x="488" y="655" type="line" smooth="yes"/>
      <point x="479" y="698"/>
      <point x="493" y="713"/>
      <point x="542" y="713" type="curve"/>
      <point x="542" y="750" type="line"/>
      <point x="428" y="750" type="line"/>
      <point x="314" y="750" type="line"/>
      <point x="314" y="713" type="line"/>
      <point x="359.0" y="713.0"/>
      <point x="375" y="695"/>
      <point x="366" y="655" type="curve" smooth="yes"/>
      <point x="256" y="146" type="line"/>
      <point x="273" y="146" type="line"/>
      <point x="173" y="673" type="line" smooth="yes"/>
      <point x="168" y="699"/>
      <point x="191" y="715.0"/>
      <point x="233" y="715" type="curve"/>
      <point x="233" y="750" type="line"/>
      <point x="-2" y="750" type="line"/>
      <point x="-2" y="713" type="line"/>
      <point x="33.0" y="713.0"/>
      <point x="50" y="701"/>
      <point x="58" y="670" type="curve" smooth="yes"/>
      <point x="228" y="-12" type="line"/>
      <point x="272" y="-12" type="line"/>
      <point x="406" y="636" type="line"/>
      <point x="393" y="636" type="line"/>
      <point x="543" y="-12" type="line"/>
      <point x="588" y="-12" type="line"/>
      <point x="740" y="670" type="line" smooth="yes"/>
      <point x="747" y="701"/>
      <point x="765.0" y="714.0"/>
      <point x="802" y="714" type="curve"/>
      <point x="802" y="750" type="line"/>
      <point x="633" y="750" type="line"/>
      <point x="633" y="714" type="line"/>
      <point x="681.0" y="714.0"/>
      <point x="700" y="700"/>
      <point x="693" y="670" type="curve" smooth="yes"/>
      <point x="576" y="146" type="line"/>
      <point x="589" y="146" type="line"/>
    </contour>
  </outline>
</glyph>
<glyph name="bracketleft" format="2">
  <advance width="243"/>
  <unicode hex="005B"/>
  <outline>
    <contour>
      <point x="0" y="-220" type="line"/>
      <point x="255" y="-220" type="line"/>
      <point x="255" y="-170" type="line"/>
      <point x="90" y="-170" type="line"/>
      <point x="90" y="720" type="line"/>
      <point x="255" y="720" type="line"/>
      <point x="255" y="770" type="line"/>
      <point x="0" y="770" type="line"/>
    </contour>
  </outline>
</glyph>
<glyph name="bracketright" format="2">
  <advance width="243"/>
  <unicode hex="005D"/>
  <outline>
    <contour>
      <point x="243" y="-220" type="line"/>
      <point x="243" y="770" type="line"/>
      <point x="-12" y="770" type="line"/>
      <point x="-12" y="720" type="line"/>
      <point x="153" y="720" type="line"/>
      <point x="153" y="-170" type="line"/>
      <point x="-12" y="-170" type="line"/>
      <point x="-12" y="-220" type="line"/>
    </contour>
  </outline>
</glyph>
<glyph name="underscore" format="2">
  <advance width="578"/>
  <unicode hex="005F"/>
  <outline>
    <contour>
      <point x="0" y="0" type="line"/>
      <point x="578" y="0" type="line"/>
      <point x="578" y="67" type="line"/>
      <point x="0" y="67" type="line"/>
    </contour>
  </outline>
</glyph>
<glyph name="a" format="2">
  <advance width="462"/>
  <unicode hex="0061"/>
  <outline>
    <contour>
      <point x="101" y="145" type="line"/>
      <point x="354" y="145" type="line"/>
      <point x="354" y="183" type="line"/>
      <point x="101" y="183" type="line"/>
    </contour>
    <contour>
      <point x="99" y="81" type="curve" smooth="yes"/>
      <point x="213" y="427" type="line"/>
      <point x="191" y="427" type="line"/>
      <point x="301" y="78" type="line" smooth="yes"/>
      <point x="310" y="50"/>
      <point x="291" y="37"/>
      <point x="240" y="37" type="curve"/>
      <point x="240" y="0" type="line"/>
      <point x="470" y="0" type="line"/>
      <point x="470" y="37" type="line"/>
      <point x="429" y="37"/>
      <point x="420" y="44"/>
      <point x="408" y="79" type="curve" smooth="yes"/>
      <point x="252" y="544" type="line"/>
      <point x="204" y="544" type="line"/>
      <point x="54" y="81" type="line" smooth="yes"/>
      <point x="44" y="49"/>
      <point x="28" y="37"/>
      <point x="-8" y="37" type="curve"/>
      <point x="-8" y="0" type="line"/>
      <point x="159" y="0" type="line"/>
      <point x="159" y="37" type="line"/>
      <point x="114" y="37"/>
      <point x="90" y="54"/>
    </contour>
  </outline>
</glyph>
<glyph name="d" format="2">
  <advance width="479"/>
  <unicode hex="0064"/>
  <outline>
    <contour>
      <point x="262" y="0" type="line" smooth="yes"/>
      <point x="386" y="0"/>
      <point x="447" y="71"/>
      <point x="447" y="214" type="curve" smooth="yes"/>
      <point x="447" y="326" type="line" smooth="yes"/>
      <point x="447" y="472"/>
      <point x="388" y="540"/>
      <point x="262" y="540" type="curve" smooth="yes"/>
      <point x="84" y="540" type="line"/>
      <point x="84" y="501" type="line"/>
      <point x="262" y="501" type="line" smooth="yes"/>
      <point x="307" y="501"/>
      <point x="337" y="463"/>
      <point x="337" y="404" type="curve" smooth="yes"/>
      <point x="337" y="136" type="line" smooth="yes"/>
      <point x="337" y="77"/>
      <point x="307" y="39"/>
      <point x="262" y="39" type="curve" smooth="yes"/>
      <point x="84" y="39" type="line"/>
      <point x="84" y="0" type="line"/>
    </contour>
    <contour>
      <point x="84" y="11" type="line"/>
      <point x="196" y="11" type="line"/>
      <point x="196" y="529" type="line"/>
      <point x="84" y="529" type="line"/>
    </contour>
    <component base="smallcomponent_top_half_serif" xOffset="-12"/>
    <component base="smallcomponents_btm_half_serif" xOffset="-12"/>
  </outline>
</glyph>
<glyph name="k" format="2">
  <advance width="482"/>
  <unicode hex="006B"/>
  <outline>
    <contour>
      <point x="84" y="20" type="line"/>
      <point x="194" y="20" type="line"/>
      <point x="194" y="520" type="line"/>
      <point x="84" y="520" type="line"/>
    </contour>
    <contour>
      <point x="263" y="295" type="curve" smooth="yes"/>
      <point x="234" y="295" type="line"/>
      <point x="234" y="258" type="line"/>
      <point x="258" y="258" type="line" smooth="yes"/>
      <point x="297" y="258"/>
      <point x="330" y="206"/>
      <point x="330" y="143" type="curve"/>
      <point x="330" y="44"/>
      <point x="374" y="0"/>
      <point x="475" y="0" type="curve"/>
      <point x="494" y="0" type="line"/>
      <point x="494" y="34" type="line"/>
      <point x="475" y="34" type="line" smooth="yes"/>
      <point x="451" y="34"/>
      <point x="432" y="83"/>
      <point x="432" y="144" type="curve"/>
      <point x="432" y="234"/>
      <point x="363" y="295"/>
    </contour>
    <contour>
      <point x="260" y="258" type="line"/>
      <point x="388" y="462" type="line" smooth="yes"/>
      <point x="409" y="496"/>
      <point x="426" y="506"/>
      <point x="463" y="506" type="curve"/>
      <point x="463" y="540" type="line"/>
      <point x="296" y="540" type="line"/>
      <point x="296" y="506" type="line"/>
      <point x="336" y="506"/>
      <point x="356" y="491"/>
      <point x="343" y="470" type="curve" smooth="yes"/>
      <point x="234" y="295" type="line"/>
      <point x="234" y="258" type="line"/>
    </contour>
    <component base="smallcomponent_bottom_serif" xOffset="-12"/>
    <component base="smallcomponent_top_serif" xOffset="-12"/>
  </outline>
</glyph>
<glyph name="v" format="2">
  <advance width="474"/>
  <unicode hex="0076"/>
  <outline>
    <contour>
      <point x="369" y="462" type="curve" smooth="yes"/>
      <point x="255" y="103" type="line"/>
      <point x="276" y="103" type="line"/>
      <point x="166" y="465" type="line" smooth="yes"/>
      <point x="158" y="493"/>
      <point x="177" y="506"/>
      <point x="227" y="506" type="curve"/>
      <point x="227" y="540" type="line"/>
      <point x="-2" y="540" type="line"/>
      <point x="-2" y="506" type="line"/>
      <point x="35" y="506"/>
      <point x="50" y="496"/>
      <point x="60" y="464" type="curve" smooth="yes"/>
      <point x="216" y="-14" type="line"/>
      <point x="264" y="-14" type="line"/>
      <point x="414" y="462" type="line" smooth="yes"/>
      <point x="424" y="494"/>
      <point x="441" y="506"/>
      <point x="476" y="506" type="curve"/>
      <point x="476" y="540" type="line"/>
      <point x="309" y="540" type="line"/>
      <point x="309" y="506" type="line"/>
      <point x="355" y="506"/>
      <point x="378" y="489"/>
    </contour>
  </outline>
</glyph>
<glyph name="w" format="2">
  <advance width="712"/>
  <unicode hex="0077"/>
  <outline>
    <contour>
      <point x="610" y="465" type="curve" smooth="yes"/>
      <point x="500" y="115" type="line"/>
      <point x="531" y="115" type="line"/>
      <point x="427" y="468" type="line" smooth="yes"/>
      <point x="419" y="496"/>
      <point x="439" y="509"/>
      <point x="489" y="509" type="curve"/>
      <point x="488" y="540" type="line"/>
      <point x="279" y="540" type="line"/>
      <point x="279" y="509" type="line"/>
      <point x="319" y="509"/>
      <point x="345" y="486"/>
      <point x="336" y="453" type="curve" smooth="yes"/>
      <point x="240" y="115" type="line"/>
      <point x="269" y="115" type="line"/>
      <point x="162" y="468" type="line" smooth="yes"/>
      <point x="154" y="496"/>
      <point x="173" y="509"/>
      <point x="223" y="509" type="curve"/>
      <point x="223" y="540" type="line"/>
      <point x="-2" y="540" type="line"/>
      <point x="-2" y="509" type="line"/>
      <point x="37" y="509"/>
      <point x="49" y="501"/>
      <point x="60" y="467" type="curve" smooth="yes"/>
      <point x="216" y="-14" type="line"/>
      <point x="243" y="-14" type="line"/>
      <point x="371" y="424" type="line"/>
      <point x="343" y="424" type="line"/>
      <point x="476" y="-14" type="line"/>
      <point x="502" y="-14" type="line"/>
      <point x="652" y="465" type="line" smooth="yes"/>
      <point x="662" y="497"/>
      <point x="679" y="509"/>
      <point x="714" y="509" type="curve"/>
      <point x="714" y="540" type="line"/>
      <point x="550" y="540" type="line"/>
      <point x="550" y="509" type="line"/>
      <point x="595" y="509"/>
      <point x="618" y="492"/>
    </contour>
  </outline>
</glyph>
<glyph name="x" format="2">
  <advance width="458"/>
  <unicode hex="0078"/>
  <outline>
    <contour>
      <point x="-8" y="506" type="line"/>
      <point x="24" y="506"/>
      <point x="40" y="497"/>
      <point x="55" y="471" type="curve" smooth="yes"/>
      <point x="287" y="73" type="line" smooth="yes"/>
      <point x="298" y="54"/>
      <point x="270" y="33"/>
      <point x="234" y="33" type="curve"/>
      <point x="234" y="0" type="line"/>
      <point x="466" y="0" type="line"/>
      <point x="466" y="33" type="line"/>
      <point x="435" y="33"/>
      <point x="418" y="42"/>
      <point x="404" y="66" type="curve" smooth="yes"/>
      <point x="173" y="461" type="line" smooth="yes"/>
      <point x="156" y="490"/>
      <point x="174" y="506"/>
      <point x="224" y="506" type="curve"/>
      <point x="224" y="540" type="line"/>
      <point x="-8" y="540" type="line"/>
    </contour>
    <contour>
      <point x="278" y="506" type="line"/>
      <point x="320" y="506"/>
      <point x="339" y="491"/>
      <point x="325" y="469" type="curve" smooth="yes"/>
      <point x="219" y="310" type="line"/>
      <point x="209" y="307" type="line"/>
      <point x="74" y="80" type="line" smooth="yes"/>
      <point x="53" y="44"/>
      <point x="36" y="33"/>
      <point x="0" y="33" type="curve"/>
      <point x="0" y="0" type="line"/>
      <point x="167" y="0" type="line"/>
      <point x="167" y="33" type="line"/>
      <point x="125" y="33"/>
      <point x="108" y="49"/>
      <point x="123" y="74" type="curve" smooth="yes"/>
      <point x="246" y="285" type="line"/>
      <point x="259" y="288" type="line"/>
      <point x="371" y="461" type="line" smooth="yes"/>
      <point x="395" y="498"/>
      <point x="408" y="506"/>
      <point x="444" y="506" type="curve"/>
      <point x="444" y="540" type="line"/>
      <point x="278" y="540" type="line"/>
    </contour>
  </outline>
</glyph>
<glyph name="braceleft" format="2">
  <advance width="269"/>
  <unicode hex="007B"/>
  <outline>
    <contour>
      <point x="187" y="-119" type="curve" smooth="yes"/>
      <point x="187" y="92" type="line" smooth="yes"/>
      <point x="187" y="190"/>
      <point x="155" y="254"/>
      <point x="67" y="297" type="curve"/>
      <point x="67" y="270" type="line"/>
      <point x="155" y="315"/>
      <point x="187" y="379"/>
      <point x="187" y="477" type="curve" smooth="yes"/>
      <point x="187" y="658" type="line" smooth="yes"/>
      <point x="187" y="714"/>
      <point x="217" y="750"/>
      <point x="260" y="750" type="curve" smooth="yes"/>
      <point x="281" y="750" type="line"/>
      <point x="281" y="789" type="line"/>
      <point x="280" y="789" type="line" smooth="yes"/>
      <point x="146" y="789"/>
      <point x="92" y="735"/>
      <point x="92" y="594" type="curve" smooth="yes"/>
      <point x="92" y="401" type="line" smooth="yes"/>
      <point x="92" y="342"/>
      <point x="63" y="304"/>
      <point x="19" y="304" type="curve" smooth="yes"/>
      <point x="0" y="304" type="line"/>
      <point x="0" y="265" type="line" smooth="yes"/>
      <point x="19" y="265" type="line" smooth="yes"/>
      <point x="63" y="265"/>
      <point x="92" y="227"/>
      <point x="92" y="168" type="curve" smooth="yes"/>
      <point x="92" y="-55" type="line" smooth="yes"/>
      <point x="92" y="-196"/>
      <point x="146" y="-250"/>
      <point x="280" y="-250" type="curve" smooth="yes"/>
      <point x="281" y="-250" type="line"/>
      <point x="281" y="-211" type="line"/>
      <point x="260" y="-211" type="line" smooth="yes"/>
      <point x="217" y="-211"/>
      <point x="187" y="-175"/>
    </contour>
  </outline>
</glyph>
<glyph name="bar" format="2">
  <advance width="828"/>
  <unicode hex="007C"/>
  <outline>
    <contour>
      <point x="451.0" y="-117" type="line"/>
      <point x="451.0" y="750" type="line"/>
      <point x="376.0" y="750" type="line"/>
      <point x="376.0" y="-117" type="line"/>
    </contour>
  </outline>
</glyph>
<glyph name="braceright" format="2">
  <advance width="305"/>
  <unicode hex="007D"/>
  <outline>
    <contour>
      <point x="118" y="-119" type="line" smooth="yes"/>
      <point x="118" y="-175"/>
      <point x="88" y="-211"/>
      <point x="45" y="-211" type="curve" smooth="yes"/>
      <point x="24" y="-211" type="line"/>
      <point x="24" y="-250" type="line"/>
      <point x="25" y="-250" type="line" smooth="yes"/>
      <point x="159" y="-250"/>
      <point x="213" y="-196"/>
      <point x="213" y="-55" type="curve" smooth="yes"/>
      <point x="213" y="168" type="line" smooth="yes"/>
      <point x="213" y="227"/>
      <point x="242" y="265"/>
      <point x="286" y="265" type="curve" smooth="yes"/>
      <point x="305" y="265" type="line" smooth="yes"/>
      <point x="305" y="304" type="line"/>
      <point x="286" y="304" type="line" smooth="yes"/>
      <point x="242" y="304"/>
      <point x="213" y="342"/>
      <point x="213" y="401" type="curve" smooth="yes"/>
      <point x="213" y="594" type="line" smooth="yes"/>
      <point x="213" y="735"/>
      <point x="159" y="789"/>
      <point x="25" y="789" type="curve" smooth="yes"/>
      <point x="24" y="789" type="line"/>
      <point x="24" y="750" type="line"/>
      <point x="45" y="750" type="line" smooth="yes"/>
      <point x="88" y="750"/>
      <point x="118" y="714"/>
      <point x="118" y="658" type="curve" smooth="yes"/>
      <point x="118" y="477" type="line" smooth="yes"/>
      <point x="118" y="379"/>
      <point x="150" y="315"/>
      <point x="238" y="270" type="curve"/>
      <point x="238" y="297" type="line"/>
      <point x="150" y="254"/>
      <point x="118" y="190"/>
      <point x="118" y="92" type="curve" smooth="yes"/>
    </contour>
  </outline>
</glyph>
<glyph name="exclamdown" format="2">
  <advance width="179"/>
  <unicode hex="00A1"/>
  <outline>
    <contour>
      <point x="145" y="-144" type="curve"/>
      <point x="145" y="-7"/>
      <point x="133" y="251"/>
      <point x="111" y="353" type="curve"/>
      <point x="67" y="353" type="line"/>
      <point x="46" y="251"/>
      <point x="35" y="-7"/>
      <point x="34" y="-144" type="curve"/>
      <point x="34" y="-189"/>
      <point x="54" y="-215"/>
      <point x="88" y="-215" type="curve"/>
      <point x="125" y="-215"/>
      <point x="145.0" y="-191"/>
    </contour>
    <component base="period" yOffset="418"/>
  </outline>
</glyph>
<glyph name="copyright" format="2">
  <advance width="837"/>
  <unicode hex="00A9"/>
  <outline>
    <contour>
      <point x="72" y="366" type="curve"/>
      <point x="72" y="127"/>
      <point x="202" y="-5"/>
      <point x="428" y="-5" type="curve"/>
      <point x="643" y="-5"/>
      <point x="765" y="127"/>
      <point x="765" y="366" type="curve"/>
      <point x="765" y="612"/>
      <point x="636" y="750"/>
      <point x="428" y="750" type="curve"/>
      <point x="202" y="750"/>
      <point x="72" y="618"/>
    </contour>
    <contour>
      <point x="136" y="366" type="curve"/>
      <point x="136" y="578"/>
      <point x="238" y="693"/>
      <point x="428" y="693" type="curve"/>
      <point x="604" y="693"/>
      <point x="705" y="573"/>
      <point x="705" y="366" type="curve"/>
      <point x="705" y="164"/>
      <point x="610" y="49"/>
      <point x="428" y="49" type="curve"/>
      <point x="238" y="49"/>
      <point x="136" y="164"/>
    </contour>
    <component base="c" xScale="0.8741558120002827" yScale="0.8741558120002827" xOffset="228" yOffset="133"/>
  </outline>
</glyph>
<glyph name="hyphensoft" format="2">
  <advance width="540"/>
  <unicode hex="00AD"/>
  <outline>
    <contour>
      <point x="70" y="247" type="line"/>
      <point x="468" y="247" type="line"/>
      <point x="468" y="314" type="line"/>
      <point x="70" y="314" type="line"/>
    </contour>
  </outline>
</glyph>
<glyph name="macron" format="2">
  <advance width="280"/>
  <unicode hex="00AF"/>
  <outline>
    <contour>
      <point x="6" y="790" type="line"/>
      <point x="274" y="790" type="line"/>
      <point x="274" y="830" type="line"/>
      <point x="6" y="830" type="line"/>
    </contour>
  </outline>
</glyph>
<glyph name="degree" format="2">
  <advance width="255"/>
  <unicode hex="00B0"/>
  <outline>
    <contour>
      <point x="207" y="680" type="curve"/>
      <point x="207" y="726"/>
      <point x="178" y="753"/>
      <point x="128" y="753" type="curve"/>
      <point x="76" y="753"/>
      <point x="48" y="727"/>
      <point x="48" y="680" type="curve"/>
      <point x="48" y="632"/>
      <point x="76" y="607"/>
      <point x="128" y="607" type="curve"/>
      <point x="180" y="607"/>
      <point x="207" y="632"/>
    </contour>
    <contour>
      <point x="86" y="680" type="curve"/>
      <point x="86" y="708"/>
      <point x="104" y="730"/>
      <point x="128" y="730" type="curve"/>
      <point x="153" y="730"/>
      <point x="170" y="709"/>
      <point x="170" y="680" type="curve"/>
      <point x="170" y="652"/>
      <point x="152" y="632"/>
      <point x="128" y="632" type="curve"/>
      <point x="104" y="632"/>
      <point x="86" y="652"/>
    </contour>
  </outline>
</glyph>
<glyph name="acute" format="2">
  <advance width="301"/>
  <unicode hex="00B4"/>
  <outline>
    <contour>
      <point x="148" y="910" type="line"/>
      <point x="72" y="793" type="line"/>
      <point x="118" y="793" type="line"/>
      <point x="229" y="910" type="line"/>
    </contour>
  </outline>
</glyph>
<glyph name="onesuperior" format="2">
  <advance width="260"/>
  <unicode hex="00B9"/>
  <outline>
    <contour>
      <point x="95" y="656" type="line"/>
      <point x="95" y="409" type="line"/>
      <point x="166" y="409" type="line"/>
      <point x="166" y="750" type="line"/>
      <point x="143" y="750" type="line"/>
      <point x="127" y="716"/>
      <point x="93" y="690"/>
      <point x="56" y="679" type="curve"/>
      <point x="56" y="656" type="line"/>
    </contour>
    <contour>
      <point x="56" y="426" type="curve"/>
      <point x="56" y="402" type="line"/>
      <point x="204" y="402" type="line"/>
      <point x="204" y="426" type="line"/>
      <point x="177" y="426"/>
      <point x="166" y="435"/>
      <point x="166" y="460" type="curve"/>
      <point x="95" y="460" type="line"/>
      <point x="95" y="435"/>
      <point x="84" y="426"/>
    </contour>
  </outline>
</glyph>
<glyph name="guillemetright" format="2">
  <advance width="577"/>
  <unicode hex="00BB"/>
  <outline>
    <contour>
      <point x="476" y="225" type="line"/>
      <point x="541" y="272" type="line"/>
      <point x="316" y="540" type="line"/>
      <point x="214" y="540" type="line"/>
    </contour>
    <contour>
      <point x="469" y="319" type="line"/>
      <point x="214" y="0" type="line"/>
      <point x="316" y="0" type="line"/>
      <point x="541" y="272" type="line"/>
    </contour>
    <contour>
      <point x="286" y="225" type="line"/>
      <point x="351" y="272" type="line"/>
      <point x="126" y="540" type="line"/>
      <point x="24" y="540" type="line"/>
    </contour>
    <contour>
      <point x="279" y="319" type="line"/>
      <point x="24" y="0" type="line"/>
      <point x="126" y="0" type="line"/>
      <point x="351" y="272" type="line"/>
    </contour>
  </outline>
</glyph>
<glyph name="threequarters" format="2">
  <advance width="880"/>
  <unicode hex="00BE"/>
  <outline>
    <contour>
      <point x="167" y="718" type="curve"/>
      <point x="214" y="718"/>
      <point x="238" y="690"/>
      <point x="238" y="627" type="curve"/>
      <point x="238" y="578"/>
      <point x="207" y="531"/>
      <point x="155" y="509" type="curve"/>
      <point x="155" y="509"/>
      <point x="177" y="472"/>
      <point x="177" y="472" type="curve"/>
      <point x="224" y="472"/>
      <point x="248" y="435"/>
      <point x="248" y="362" type="curve"/>
      <point x="248" y="285"/>
      <point x="218" y="247"/>
      <point x="163" y="247" type="curve"/>
      <point x="126" y="247"/>
      <point x="102" y="263"/>
      <point x="87" y="298" type="curve"/>
      <point x="76" y="265" type="line"/>
      <point x="116" y="271"/>
      <point x="147" y="293"/>
      <point x="147" y="325" type="curve"/>
      <point x="147" y="354"/>
      <point x="119" y="381"/>
      <point x="89" y="380" type="curve" smooth="yes"/>
      <point x="57" y="379"/>
      <point x="30" y="351"/>
      <point x="30" y="315" type="curve"/>
      <point x="30" y="249"/>
      <point x="89" y="203"/>
      <point x="170" y="203" type="curve"/>
      <point x="281" y="203"/>
      <point x="344" y="258"/>
      <point x="344" y="372" type="curve"/>
      <point x="344" y="435"/>
      <point x="293" y="493"/>
      <point x="224" y="514" type="curve"/>
      <point x="224" y="499" type="line"/>
      <point x="287" y="519"/>
      <point x="327" y="571"/>
      <point x="327" y="631" type="curve"/>
      <point x="327" y="712"/>
      <point x="268" y="760"/>
      <point x="177" y="760" type="curve"/>
      <point x="95" y="760"/>
      <point x="36" y="714"/>
      <point x="36" y="647" type="curve"/>
      <point x="36" y="612"/>
      <point x="64" y="584"/>
      <point x="96" y="581" type="curve" smooth="yes"/>
      <point x="127" y="581"/>
      <point x="154" y="608"/>
      <point x="154" y="635" type="curve"/>
      <point x="154" y="667"/>
      <point x="125" y="688"/>
      <point x="84" y="694" type="curve"/>
      <point x="94" y="667" type="line"/>
      <point x="102" y="698"/>
      <point x="130" y="718"/>
    </contour>
    <contour>
      <point x="624" y="38" type="curve"/>
      <point x="624" y="1" type="line"/>
      <point x="850" y="1" type="line"/>
      <point x="850" y="38" type="line"/>
      <point x="807" y="38"/>
      <point x="790" y="53"/>
      <point x="790" y="91" type="curve"/>
      <point x="684" y="91" type="line"/>
      <point x="684" y="53"/>
      <point x="667" y="38"/>
    </contour>
    <contour>
      <point x="696" y="389" type="line"/>
      <point x="684" y="409" type="line"/>
      <point x="684" y="12" type="line"/>
      <point x="790" y="12" type="line"/>
      <point x="790" y="540" type="line"/>
      <point x="748" y="540" type="line"/>
      <point x="498" y="186" type="line"/>
      <point x="498" y="142" type="line"/>
      <point x="840" y="142" type="line"/>
      <point x="840" y="186" type="line"/>
      <point x="551" y="186" type="line"/>
      <point x="536" y="157" type="line"/>
    </contour>
    <contour>
      <point x="288" y="-75" type="line"/>
      <point x="346" y="-91" type="line"/>
      <point x="600" y="825" type="line"/>
      <point x="542" y="841" type="line"/>
    </contour>
  </outline>
</glyph>
<glyph name="questiondown" format="2">
  <advance width="540"/>
  <unicode hex="00BF"/>
  <outline>
    <contour>
      <point x="315.0" y="351" type="curve"/>
      <point x="259.0" y="351" type="line"/>
      <point x="259.0" y="140"/>
      <point x="56.0" y="165"/>
      <point x="56.0" y="-26" type="curve"/>
      <point x="56.0" y="-136"/>
      <point x="148.0" y="-214"/>
      <point x="276.0" y="-214" type="curve"/>
      <point x="388.0" y="-214"/>
      <point x="469.0" y="-148"/>
      <point x="469.0" y="-58" type="curve"/>
      <point x="469.0" y="-9"/>
      <point x="434.0" y="30"/>
      <point x="389.0" y="31" type="curve" smooth="yes"/>
      <point x="347.0" y="32"/>
      <point x="311.0" y="-2"/>
      <point x="311.0" y="-42" type="curve"/>
      <point x="311.0" y="-83"/>
      <point x="348.0" y="-115"/>
      <point x="405.0" y="-122" type="curve"/>
      <point x="391.0" y="-88" type="line"/>
      <point x="372.0" y="-139"/>
      <point x="336.0" y="-164"/>
      <point x="285.0" y="-164" type="curve"/>
      <point x="216.0" y="-164"/>
      <point x="168.0" y="-108"/>
      <point x="168.0" y="-28" type="curve"/>
      <point x="169.0" y="144"/>
      <point x="315.0" y="77"/>
    </contour>
    <component base="period" xOffset="190" yOffset="418"/>
  </outline>
</glyph>
<glyph name="Eth" format="2">
  <advance width="494"/>
  <unicode hex="00D0"/>
  <outline>
    <contour>
      <point x="296" y="399" type="line"/>
      <point x="27" y="399" type="line"/>
      <point x="27" y="360" type="line"/>
      <point x="296" y="360" type="line" smooth="yes"/>
    </contour>
    <component base="D"/>
  </outline>
</glyph>
<glyph name="multiply" format="2">
  <advance width="538"/>
  <unicode hex="00D7"/>
  <outline>
    <contour>
      <point x="421" y="56" type="line"/>
      <point x="492" y="126" type="line"/>
      <point x="326" y="288" type="line"/>
      <point x="326" y="249" type="line"/>
      <point x="483" y="402" type="line"/>
      <point x="415" y="470" type="line"/>
      <point x="263" y="313" type="line"/>
      <point x="301" y="313" type="line"/>
      <point x="140" y="479" type="line"/>
      <point x="69" y="408" type="line"/>
      <point x="234" y="247" type="line"/>
      <point x="234" y="285" type="line"/>
      <point x="77" y="132" type="line"/>
      <point x="145" y="64" type="line"/>
      <point x="298" y="221" type="line"/>
      <point x="260" y="221" type="line"/>
    </contour>
  </outline>
</glyph>
<glyph name="Oslash" format="2">
  <advance width="480"/>
  <unicode hex="00D8"/>
  <outline>
    <contour>
      <point x="477" y="554" type="line"/>
      <point x="1" y="275" type="line"/>
      <point x="2" y="221" type="line"/>
      <point x="478" y="500" type="line" smooth="yes"/>
    </contour>
    <component base="O"/>
  </outline>
</glyph>
<glyph name="Thorn" format="2">
  <advance width="482"/>
  <unicode hex="00DE"/>
  <outline>
    <contour>
      <point x="90" y="11" type="line"/>
      <point x="202" y="11" type="line"/>
      <point x="202" y="739" type="line"/>
      <point x="90" y="739" type="line"/>
    </contour>
    <contour>
      <point x="270" y="133" type="line" smooth="yes"/>
      <point x="397" y="133"/>
      <point x="458" y="204"/>
      <point x="458" y="345" type="curve" smooth="yes"/>
      <point x="458" y="406" type="line" smooth="yes"/>
      <point x="458" y="548"/>
      <point x="397" y="619"/>
      <point x="270" y="619" type="curve" smooth="yes"/>
      <point x="200" y="619" type="line"/>
      <point x="200" y="580" type="line"/>
      <point x="270" y="580" type="line" smooth="yes"/>
      <point x="314" y="580"/>
      <point x="343" y="543"/>
      <point x="343" y="484" type="curve" smooth="yes"/>
      <point x="343" y="267" type="line" smooth="yes"/>
      <point x="343" y="208"/>
      <point x="314" y="169"/>
      <point x="270" y="169" type="curve" smooth="yes"/>
      <point x="200" y="169" type="line"/>
      <point x="200" y="133" type="line"/>
    </contour>
    <contour>
      <point x="90" y="670" type="curve"/>
      <point x="202" y="670" type="line"/>
      <point x="202" y="704"/>
      <point x="215" y="713"/>
      <point x="262" y="713" type="curve"/>
      <point x="262" y="750" type="line"/>
      <point x="30" y="750" type="line"/>
      <point x="30" y="713" type="line"/>
      <point x="77" y="713"/>
      <point x="90" y="704"/>
    </contour>
    <contour>
      <point x="90" y="80" type="line"/>
      <point x="90" y="46"/>
      <point x="77" y="37"/>
      <point x="30" y="37" type="curve"/>
      <point x="30" y="0" type="line"/>
      <point x="262" y="0" type="line"/>
      <point x="262" y="37" type="line"/>
      <point x="215" y="37"/>
      <point x="202" y="46"/>
      <point x="202" y="80" type="curve"/>
    </contour>
  </outline>
</glyph>
<glyph name="eth" format="2">
  <advance width="489"/>
  <unicode hex="00F0"/>
  <outline>
    <contour>
      <point x="264" y="0" type="line" smooth="yes"/>
      <point x="388" y="0"/>
      <point x="449" y="71"/>
      <point x="449" y="214" type="curve" smooth="yes"/>
      <point x="449" y="326" type="line" smooth="yes"/>
      <point x="449" y="469"/>
      <point x="388" y="540"/>
      <point x="264" y="540" type="curve"/>
      <point x="264" y="540"/>
      <point x="141" y="540"/>
      <point x="141" y="540" type="curve"/>
      <point x="141" y="503" type="line"/>
      <point x="264" y="503" type="line" smooth="yes"/>
      <point x="309.0" y="503"/>
      <point x="339" y="464"/>
      <point x="339" y="404" type="curve" smooth="yes"/>
      <point x="339" y="136" type="line" smooth="yes"/>
      <point x="339" y="76"/>
      <point x="309.0" y="37"/>
      <point x="264" y="37" type="curve" smooth="yes"/>
      <point x="134" y="37" type="line"/>
      <point x="134" y="0" type="line"/>
    </contour>
    <contour>
      <point x="86" y="11" type="line"/>
      <point x="198" y="11" type="line"/>
      <point x="198" y="529" type="line"/>
      <point x="86" y="529" type="line"/>
    </contour>
    <contour>
      <point x="160" y="540" type="line"/>
      <point x="26" y="540" type="line"/>
      <point x="26" y="506" type="line"/>
      <point x="73" y="506"/>
      <point x="86" y="497"/>
      <point x="86" y="463" type="curve"/>
      <point x="160" y="463" type="line"/>
    </contour>
    <contour>
      <point x="160" y="0" type="line"/>
      <point x="160" y="77" type="line"/>
      <point x="86" y="77" type="line"/>
      <point x="86" y="43"/>
      <point x="73" y="34"/>
      <point x="26" y="34" type="curve"/>
      <point x="26" y="0" type="line"/>
    </contour>
    <contour>
      <point x="26" y="250" type="line"/>
      <point x="275" y="250" type="line"/>
      <point x="275" y="290" type="line"/>
      <point x="26" y="290" type="line"/>
    </contour>
  </outline>
</glyph>
<glyph name="divide" format="2">
  <advance width="538"/>
  <unicode hex="00F7"/>
  <outline>
    <contour>
      <point x="30" y="222" type="line"/>
      <point x="508" y="222" type="line"/>
      <point x="508" y="319" type="line"/>
      <point x="30" y="319" type="line"/>
    </contour>
    <component base="period" xOffset="176" yOffset="30"/>
    <component base="period" xOffset="177" yOffset="395"/>
  </outline>
</glyph>
<glyph name="oslash" format="2">
  <advance width="469"/>
  <unicode hex="00F8"/>
  <outline>
    <contour>
      <point x="472" y="441" type="line"/>
      <point x="-4" y="162" type="line"/>
      <point x="-3" y="108" type="line"/>
      <point x="473" y="387" type="line" smooth="yes"/>
    </contour>
    <component base="o" xOffset="1"/>
  </outline>
</glyph>
<glyph name="hbar" format="2">
  <advance width="562"/>
  <unicode hex="0127"/>
  <guideline x="36" y="139" angle="90" identifier="epOHjopYEo"/>
  <outline>
    <contour>
      <point x="36" y="380" type="line"/>
      <point x="527" y="380" type="line"/>
      <point x="527" y="420" type="line"/>
      <point x="36" y="420" type="line"/>
    </contour>
    <component base="h"/>
  </outline>
</glyph>
<glyph name="Eng" format="2">
  <advance width="520"/>
  <unicode hex="014A"/>
  <outline>
    <contour>
      <point x="404" y="673" type="curve"/>
      <point x="452" y="673" type="line"/>
      <point x="452" y="707"/>
      <point x="465" y="716"/>
      <point x="512" y="716" type="curve"/>
      <point x="512" y="750" type="line"/>
      <point x="344" y="750" type="line"/>
      <point x="344" y="716" type="line"/>
      <point x="391" y="716"/>
      <point x="404" y="707"/>
    </contour>
    <contour>
      <point x="80" y="77" type="line"/>
      <point x="80" y="43"/>
      <point x="67" y="34"/>
      <point x="20" y="34" type="curve"/>
      <point x="20" y="0" type="line"/>
      <point x="188" y="0" type="line"/>
      <point x="188" y="34" type="line"/>
      <point x="141" y="34"/>
      <point x="128" y="43"/>
      <point x="128" y="77" type="curve"/>
    </contour>
    <contour>
      <point x="333" y="0" type="line" smooth="yes"/>
      <point x="370" y="-110"/>
      <point x="343" y="-176.0"/>
      <point x="264" y="-176" type="curve" smooth="yes"/>
      <point x="244" y="-176" type="line"/>
      <point x="244" y="-213" type="line"/>
      <point x="264" y="-213" type="line" smooth="yes"/>
      <point x="394" y="-213"/>
      <point x="452" y="-146"/>
      <point x="452" y="0" type="curve" smooth="yes"/>
      <point x="452" y="739" type="line"/>
      <point x="404" y="739" type="line"/>
      <point x="404" y="160" type="line"/>
      <point x="409" y="39" type="line"/>
      <point x="422" y="46" type="line"/>
      <point x="203" y="750" type="line"/>
      <point x="20" y="750" type="line"/>
      <point x="20" y="713" type="line"/>
      <point x="67" y="713"/>
      <point x="80" y="704"/>
      <point x="80" y="670" type="curve" smooth="yes"/>
      <point x="80" y="11" type="line"/>
      <point x="128" y="11" type="line"/>
      <point x="128" y="562" type="line"/>
      <point x="120" y="689" type="line"/>
      <point x="107" y="679" type="line"/>
    </contour>
  </outline>
</glyph>
<glyph name="oe" format="2">
  <advance width="721"/>
  <unicode hex="0153"/>
  <outline>
    <contour>
      <point x="316" y="11" type="line"/>
      <point x="425" y="11" type="line"/>
      <point x="425" y="529" type="line"/>
      <point x="316" y="529" type="line"/>
    </contour>
    <contour>
      <point x="377" y="247" type="line"/>
      <point x="497" y="247" type="line" smooth="yes"/>
      <point x="524" y="247"/>
      <point x="536" y="228"/>
      <point x="536" y="186" type="curve"/>
      <point x="568" y="186" type="line"/>
      <point x="568" y="338" type="line"/>
      <point x="536" y="338" type="line"/>
      <point x="536" y="303"/>
      <point x="523" y="286"/>
      <point x="497" y="286" type="curve" smooth="yes"/>
      <point x="377" y="286" type="line"/>
    </contour>
    <contour>
      <point x="316" y="0" type="line"/>
      <point x="582" y="0" type="line" smooth="yes"/>
      <point x="629" y="0"/>
      <point x="645" y="-5"/>
      <point x="651" y="-21" type="curve"/>
      <point x="685" y="-21" type="line"/>
      <point x="685" y="171" type="line"/>
      <point x="652" y="171" type="line"/>
      <point x="639" y="60"/>
      <point x="619" y="39"/>
      <point x="529" y="39" type="curve" smooth="yes"/>
      <point x="425" y="39" type="line"/>
      <point x="425" y="77" type="line"/>
      <point x="316" y="77" type="line"/>
    </contour>
    <contour>
      <point x="496" y="501" type="line" smooth="yes"/>
      <point x="584" y="501"/>
      <point x="606" y="484"/>
      <point x="642" y="388" type="curve"/>
      <point x="675" y="397" type="line"/>
      <point x="634" y="559" type="line"/>
      <point x="601" y="559" type="line"/>
      <point x="600" y="545"/>
      <point x="587" y="540"/>
      <point x="552" y="540" type="curve" smooth="yes"/>
      <point x="316" y="540" type="line"/>
      <point x="316" y="463" type="line"/>
      <point x="425" y="463" type="line"/>
      <point x="425" y="501" type="line"/>
    </contour>
    <component base="o"/>
  </outline>
</glyph>
<glyph name="Tbar" format="2">
  <advance width="520"/>
  <unicode hex="0166"/>
  <outline>
    <contour>
      <point x="412" y="399" type="line"/>
      <point x="103" y="399" type="line"/>
      <point x="103" y="360" type="line"/>
      <point x="412" y="360" type="line" smooth="yes"/>
    </contour>
    <component base="T"/>
  </outline>
</glyph>
<glyph name="schwa" format="2">
  <advance width="430"/>
  <unicode hex="0259"/>
  <outline>
    <contour>
      <point x="390" y="204" type="curve" smooth="yes"/>
      <point x="390" y="336" type="line" smooth="yes"/>
      <point x="390" y="469"/>
      <point x="321" y="550.0"/>
      <point x="205" y="550" type="curve"/>
      <point x="91" y="550"/>
      <point x="40" y="482"/>
      <point x="40" y="336.0" type="curve" smooth="yes"/>
      <point x="40" y="335.0" type="line"/>
      <point x="81" y="335" type="line"/>
      <point x="81" y="351.0" type="line" smooth="yes"/>
      <point x="81" y="443"/>
      <point x="123" y="503.0"/>
      <point x="186" y="503.0" type="curve"/>
      <point x="240" y="503.0"/>
      <point x="280" y="460.0"/>
      <point x="280" y="404" type="curve" smooth="yes"/>
      <point x="280" y="136" type="line" smooth="yes"/>
      <point x="280.0" y="80.0"/>
      <point x="240.0" y="37.0"/>
      <point x="186.0" y="37.0" type="curve"/>
      <point x="123.0" y="37.0"/>
      <point x="81.0" y="97.0"/>
      <point x="81.0" y="189.0" type="curve" smooth="yes"/>
      <point x="81.0" y="205.0" type="line"/>
      <point x="40.0" y="205.0" type="line"/>
      <point x="40.0" y="188.0" type="line"/>
      <point x="40.0" y="52.91588785046727"/>
      <point x="91.0" y="-10.0"/>
      <point x="205.0" y="-10.0" type="curve"/>
      <point x="321.0" y="-10.0"/>
      <point x="390.0" y="71.0"/>
    </contour>
    <contour>
      <point x="40" y="188" type="line"/>
      <point x="318" y="188" type="line"/>
      <point x="318" y="228" type="line"/>
      <point x="40" y="228" type="line"/>
    </contour>
  </outline>
</glyph>
<glyph name="caron" format="2">
  <advance width="366"/>
  <unicode hex="02C7"/>
  <outline>
    <contour>
      <point x="250.0" y="881" type="line"/>
      <point x="192" y="810" type="line"/>
      <point x="196" y="810" type="line"/>
      <point x="131.0" y="881" type="line"/>
      <point x="72.0" y="881" type="line"/>
      <point x="179" y="762" type="line"/>
      <point x="199" y="762" type="line"/>
      <point x="294.0" y="881" type="line"/>
    </contour>
  </outline>
</glyph>
<glyph name="Delta" format="2">
  <advance width="480"/>
  <unicode hex="0394"/>
  <outline>
    <contour>
      <point x="469" y="1" type="line"/>
      <point x="234" y="425" type="line"/>
      <point x="2" y="1" type="line"/>
    </contour>
    <contour>
      <point x="207" y="199" type="line"/>
      <point x="243" y="288" type="line"/>
      <point x="220" y="288" type="line"/>
      <point x="258" y="199" type="line"/>
      <point x="300" y="118" type="line"/>
      <point x="350" y="37" type="line"/>
      <point x="366" y="74" type="line"/>
      <point x="280" y="79" type="line"/>
      <point x="192" y="78" type="line"/>
      <point x="98" y="73" type="line"/>
      <point x="115" y="36" type="line"/>
      <point x="166" y="117" type="line"/>
    </contour>
  </outline>
</glyph>
<glyph name="alphatonos" format="2">
  <advance width="462"/>
  <unicode hex="03AC"/>
  <outline>
    <contour>
      <point x="108" y="353" type="line"/>
      <point x="171" y="543" type="line"/>
      <point x="112" y="543" type="line"/>
      <point x="49" y="353" type="line"/>
    </contour>
    <component base="a"/>
  </outline>
</glyph>
<glyph name="quoteleft" format="2">
  <advance width="197"/>
  <unicode hex="2018"/>
  <outline>
    <contour>
      <point x="118" y="780" type="line"/>
      <point x="67" y="761"/>
      <point x="32" y="718"/>
      <point x="32" y="666" type="curve"/>
      <point x="32" y="624"/>
      <point x="61" y="592"/>
      <point x="99" y="591" type="curve" smooth="yes"/>
      <point x="135" y="590"/>
      <point x="165" y="620"/>
      <point x="165" y="657" type="curve" smooth="yes"/>
      <point x="165" y="715"/>
      <point x="100" y="719"/>
      <point x="100" y="719" type="curve"/>
      <point x="100" y="719"/>
      <point x="108" y="740"/>
      <point x="134" y="750" type="curve"/>
    </contour>
  </outline>
</glyph>
<glyph name="quotesinglbase" format="2">
  <advance width="342"/>
  <unicode hex="201A"/>
  <outline>
    <contour>
      <point x="154" y="-61" type="line"/>
      <point x="205" y="-42"/>
      <point x="240" y="1"/>
      <point x="240" y="53" type="curve"/>
      <point x="240" y="95"/>
      <point x="211" y="127"/>
      <point x="173" y="128" type="curve" smooth="yes"/>
      <point x="137" y="129"/>
      <point x="107" y="99"/>
      <point x="107" y="62" type="curve" smooth="yes"/>
      <point x="107" y="4"/>
      <point x="172" y="0"/>
      <point x="172" y="0" type="curve"/>
      <point x="172" y="0"/>
      <point x="164" y="-21"/>
      <point x="138" y="-31" type="curve"/>
    </contour>
  </outline>
</glyph>
<glyph name="dagger" format="2">
  <advance width="370"/>
  <unicode hex="2020"/>
  <guideline x="193" y="256" angle="0" identifier="iJabFoReNV"/>
  <outline>
    <contour>
      <point x="185" y="783" type="curve"/>
      <point x="169" y="783"/>
      <point x="153" y="775"/>
      <point x="153" y="751" type="curve" smooth="yes"/>
      <point x="153" y="729"/>
      <point x="170" y="718"/>
      <point x="174" y="671" type="curve"/>
      <point x="133" y="674"/>
      <point x="124" y="692"/>
      <point x="105" y="692" type="curve" smooth="yes"/>
      <point x="81" y="692"/>
      <point x="72" y="675"/>
      <point x="72" y="661" type="curve"/>
      <point x="72" y="645"/>
      <point x="80" y="629"/>
      <point x="104" y="629" type="curve" smooth="yes"/>
      <point x="123" y="629"/>
      <point x="133" y="646"/>
      <point x="174" y="649" type="curve"/>
      <point x="170" y="597"/>
      <point x="149" y="601"/>
      <point x="149" y="582" type="curve" smooth="yes"/>
      <point x="149" y="562"/>
      <point x="174" y="513"/>
      <point x="179" y="288" type="curve"/>
      <point x="190" y="288" type="line"/>
      <point x="194" y="513"/>
      <point x="220" y="562"/>
      <point x="220" y="582" type="curve" smooth="yes"/>
      <point x="220" y="601"/>
      <point x="198" y="597"/>
      <point x="195" y="649" type="curve"/>
      <point x="237" y="646"/>
      <point x="247" y="629"/>
      <point x="266" y="629" type="curve" smooth="yes"/>
      <point x="290" y="629"/>
      <point x="298" y="645"/>
      <point x="298" y="661" type="curve"/>
      <point x="298" y="675"/>
      <point x="289" y="692"/>
      <point x="265" y="692" type="curve" smooth="yes"/>
      <point x="246" y="692"/>
      <point x="236" y="674"/>
      <point x="195" y="671" type="curve"/>
      <point x="198" y="718"/>
      <point x="216" y="729"/>
      <point x="216" y="751" type="curve" smooth="yes"/>
      <point x="216" y="775"/>
      <point x="199" y="783"/>
    </contour>
  </outline>
</glyph>
<glyph name="minute" format="2">
  <advance width="283"/>
  <unicode hex="2032"/>
  <outline>
    <contour>
      <point x="141" y="651" type="line"/>
      <point x="211" y="842" type="line"/>
      <point x="142" y="841" type="line"/>
      <point x="72" y="651" type="line"/>
    </contour>
  </outline>
</glyph>
<glyph name="second" format="2">
  <advance width="395"/>
  <unicode hex="2033"/>
  <outline>
    <contour>
      <point x="141" y="651" type="line"/>
      <point x="211" y="842" type="line"/>
      <point x="142" y="841" type="line"/>
      <point x="72" y="651" type="line"/>
    </contour>
    <contour>
      <point x="253" y="651" type="line"/>
      <point x="323" y="842" type="line"/>
      <point x="254" y="841" type="line"/>
      <point x="184" y="651" type="line"/>
    </contour>
  </outline>
</glyph>
<glyph name="guilsinglleft" format="2">
  <advance width="339"/>
  <unicode hex="2039"/>
  <outline>
    <contour>
      <point x="101" y="225" type="line"/>
      <point x="363" y="540" type="line"/>
      <point x="261" y="540" type="line"/>
      <point x="36" y="272" type="line"/>
    </contour>
    <contour>
      <point x="108" y="319" type="line"/>
      <point x="36" y="272" type="line"/>
      <point x="261" y="0" type="line"/>
      <point x="363" y="0" type="line"/>
    </contour>
  </outline>
</glyph>
<glyph name="guilsinglright" format="2">
  <advance width="383"/>
  <unicode hex="203A"/>
  <outline>
    <contour>
      <point x="246" y="225" type="line"/>
      <point x="311" y="272" type="line"/>
      <point x="86" y="540" type="line"/>
      <point x="-16" y="540" type="line"/>
    </contour>
    <contour>
      <point x="239" y="319" type="line"/>
      <point x="-16" y="0" type="line"/>
      <point x="86" y="0" type="line"/>
      <point x="311" y="272" type="line"/>
    </contour>
  </outline>
</glyph>
<glyph name="rupee" format="2">
  <advance width="501"/>
  <unicode hex="20A8"/>
  <outline>
    <contour>
      <point x="72" y="603" type="line"/>
      <point x="399" y="603" type="line"/>
      <point x="429" y="642" type="line"/>
      <point x="102" y="642" type="line"/>
    </contour>
    <contour>
      <point x="72" y="522" type="line"/>
      <point x="399" y="522" type="line"/>
      <point x="429" y="561" type="line"/>
      <point x="102" y="561" type="line"/>
    </contour>
    <contour>
      <point x="213" y="320" type="line"/>
      <point x="312.49693251533745" y="320.0"/>
      <point x="372.0" y="398.9419354838709"/>
      <point x="372" y="481" type="curve"/>
      <point x="372.0" y="590.9041916167665"/>
      <point x="317.2584269662921" y="642"/>
      <point x="198" y="642" type="curve" smooth="yes"/>
      <point x="102" y="642" type="line"/>
      <point x="72" y="603" type="line"/>
      <point x="188" y="603" type="line" smooth="yes"/>
      <point x="232.0" y="603"/>
      <point x="261" y="561.0824742268042"/>
      <point x="261" y="496" type="curve" smooth="yes"/>
      <point x="261" y="455" type="line" smooth="yes"/>
      <point x="261.0" y="385.0"/>
      <point x="236.0" y="357.0"/>
      <point x="188" y="357" type="curve" smooth="yes"/>
      <point x="172" y="357" type="line"/>
      <point x="172" y="320" type="line"/>
    </contour>
    <contour>
      <point x="328" y="160" type="curve" smooth="yes"/>
      <point x="215" y="357" type="line"/>
      <point x="129" y="357" type="line"/>
      <point x="129" y="310" type="line"/>
      <point x="268" y="76" type="line"/>
      <point x="405" y="76" type="line"/>
      <point x="405" y="113" type="line"/>
      <point x="368" y="113"/>
      <point x="349" y="124"/>
    </contour>
  </outline>
</glyph>
<glyph name="Euro" format="2">
  <advance width="540"/>
  <unicode hex="20AC"/>
  <outline>
    <contour>
      <point x="340" y="437" type="line"/>
      <point x="63" y="437" type="line"/>
      <point x="63" y="398" type="line"/>
      <point x="340" y="398" type="line" smooth="yes"/>
    </contour>
    <contour>
      <point x="310" y="358" type="line"/>
      <point x="63" y="358" type="line"/>
      <point x="63" y="319" type="line"/>
      <point x="310" y="319" type="line" smooth="yes"/>
    </contour>
    <component base="c" xOffset="87" yOffset="105"/>
  </outline>
</glyph>
<glyph name="servicemark" format="2">
  <advance width="404"/>
  <unicode hex="2120"/>
  <outline>
    <contour>
      <point x="105" y="765" type="curve"/>
      <point x="79" y="765"/>
      <point x="55" y="743"/>
      <point x="55" y="719" type="curve"/>
      <point x="55" y="702"/>
      <point x="66" y="686"/>
      <point x="86" y="675" type="curve" smooth="yes"/>
      <point x="113" y="660" type="line" smooth="yes"/>
      <point x="128" y="652"/>
      <point x="135" y="642"/>
      <point x="135" y="632" type="curve"/>
      <point x="135" y="619"/>
      <point x="121" y="605"/>
      <point x="106" y="605" type="curve" smooth="yes"/>
      <point x="86" y="605"/>
      <point x="70" y="623"/>
      <point x="65" y="656" type="curve"/>
      <point x="54" y="656" type="line"/>
      <point x="54" y="594" type="line"/>
      <point x="65" y="594" type="line"/>
      <point x="66" y="597"/>
      <point x="70" y="600"/>
      <point x="74" y="600" type="curve"/>
      <point x="80" y="600"/>
      <point x="88" y="591"/>
      <point x="111" y="591" type="curve" smooth="yes"/>
      <point x="142" y="591"/>
      <point x="166" y="611"/>
      <point x="166" y="637" type="curve"/>
      <point x="166" y="658"/>
      <point x="155" y="675"/>
      <point x="138" y="684" type="curve" smooth="yes"/>
      <point x="104" y="703" type="line" smooth="yes"/>
      <point x="89" y="711"/>
      <point x="84" y="718"/>
      <point x="84" y="729" type="curve"/>
      <point x="84" y="742"/>
      <point x="95" y="752"/>
      <point x="108" y="752" type="curve"/>
      <point x="125" y="752"/>
      <point x="134" y="743"/>
      <point x="144" y="715" type="curve"/>
      <point x="155" y="717" type="line"/>
      <point x="142" y="767" type="line"/>
      <point x="132" y="767" type="line"/>
      <point x="129" y="759"/>
      <point x="124" y="765"/>
    </contour>
    <contour>
      <point x="185" y="618" type="line"/>
      <point x="185" y="607"/>
      <point x="181" y="605"/>
      <point x="167" y="605" type="curve"/>
      <point x="167" y="594" type="line"/>
      <point x="218" y="594" type="line"/>
      <point x="218" y="605" type="line"/>
      <point x="203" y="605"/>
      <point x="199" y="607"/>
      <point x="199" y="618" type="curve"/>
    </contour>
    <contour>
      <point x="185" y="597" type="line"/>
      <point x="199" y="597" type="line"/>
      <point x="199" y="702" type="line"/>
      <point x="197" y="750" type="line"/>
      <point x="194" y="750" type="line"/>
      <point x="246" y="594" type="line"/>
      <point x="259" y="594" type="line"/>
      <point x="302" y="746" type="line"/>
      <point x="300" y="746" type="line"/>
      <point x="298" y="703" type="line"/>
      <point x="298" y="597" type="line"/>
      <point x="331" y="597" type="line"/>
      <point x="331" y="738" type="line" smooth="yes"/>
      <point x="331" y="748"/>
      <point x="335" y="751"/>
      <point x="350" y="751" type="curve"/>
      <point x="350" y="762" type="line"/>
      <point x="292" y="762" type="line"/>
      <point x="255" y="632" type="line"/>
      <point x="263" y="632" type="line"/>
      <point x="221" y="762" type="line"/>
      <point x="167" y="762" type="line"/>
      <point x="167" y="751" type="line"/>
      <point x="181" y="751"/>
      <point x="185" y="748"/>
      <point x="185" y="738" type="curve" smooth="yes"/>
    </contour>
    <contour>
      <point x="298" y="618" type="line"/>
      <point x="298" y="607"/>
      <point x="294" y="605"/>
      <point x="279" y="605" type="curve"/>
      <point x="279" y="594" type="line"/>
      <point x="350" y="594" type="line"/>
      <point x="350" y="605" type="line"/>
      <point x="335" y="605"/>
      <point x="331" y="607"/>
      <point x="331" y="618" type="curve"/>
    </contour>
  </outline>
</glyph>
<glyph name="trademark" format="2">
  <advance width="415"/>
  <unicode hex="2122"/>
  <outline>
    <contour>
      <point x="102" y="596" type="line"/>
      <point x="132" y="596" type="line"/>
      <point x="132" y="745" type="line"/>
      <point x="102" y="745" type="line"/>
    </contour>
    <contour>
      <point x="102" y="616" type="line"/>
      <point x="102" y="606"/>
      <point x="98" y="604"/>
      <point x="85" y="604" type="curve"/>
      <point x="85" y="594" type="line"/>
      <point x="150" y="594" type="line"/>
      <point x="150" y="604" type="line"/>
      <point x="136" y="604"/>
      <point x="132" y="606"/>
      <point x="132" y="616" type="curve"/>
    </contour>
    <contour>
      <point x="149" y="751" type="curve" smooth="yes"/>
      <point x="86" y="751" type="line" smooth="yes"/>
      <point x="77" y="751"/>
      <point x="74" y="753"/>
      <point x="72" y="758" type="curve"/>
      <point x="63" y="758" type="line"/>
      <point x="54" y="703" type="line"/>
      <point x="63" y="701" type="line"/>
      <point x="73" y="734"/>
      <point x="78" y="740"/>
      <point x="96" y="740" type="curve" smooth="yes"/>
      <point x="139" y="740" type="line" smooth="yes"/>
      <point x="157" y="740"/>
      <point x="162" y="734"/>
      <point x="171" y="701" type="curve"/>
      <point x="181" y="703" type="line"/>
      <point x="171" y="758" type="line"/>
      <point x="162" y="758" type="line"/>
      <point x="161" y="753"/>
      <point x="158" y="751"/>
    </contour>
    <contour>
      <point x="208" y="616" type="line"/>
      <point x="208" y="606"/>
      <point x="204" y="604"/>
      <point x="190" y="604" type="curve"/>
      <point x="190" y="594" type="line"/>
      <point x="238" y="594" type="line"/>
      <point x="238" y="604" type="line"/>
      <point x="224" y="604"/>
      <point x="221" y="606"/>
      <point x="221" y="616" type="curve"/>
    </contour>
    <contour>
      <point x="208" y="597" type="line"/>
      <point x="221" y="597" type="line"/>
      <point x="221" y="695" type="line"/>
      <point x="218" y="740" type="line"/>
      <point x="216" y="739" type="line"/>
      <point x="264" y="594" type="line"/>
      <point x="276" y="594" type="line"/>
      <point x="316" y="736" type="line"/>
      <point x="315" y="736" type="line"/>
      <point x="313" y="696" type="line"/>
      <point x="313" y="597" type="line"/>
      <point x="344" y="597" type="line"/>
      <point x="344" y="728" type="line" smooth="yes"/>
      <point x="344" y="738"/>
      <point x="348" y="741"/>
      <point x="361" y="741" type="curve"/>
      <point x="361" y="751" type="line"/>
      <point x="307" y="751" type="line"/>
      <point x="273" y="630" type="line"/>
      <point x="281" y="630" type="line"/>
      <point x="241" y="751" type="line"/>
      <point x="190" y="751" type="line"/>
      <point x="190" y="741" type="line"/>
      <point x="204" y="741"/>
      <point x="208" y="738"/>
      <point x="208" y="728" type="curve" smooth="yes"/>
    </contour>
    <contour>
      <point x="313" y="616" type="line"/>
      <point x="313" y="606"/>
      <point x="309" y="604"/>
      <point x="295" y="604" type="curve"/>
      <point x="295" y="594" type="line"/>
      <point x="361" y="594" type="line"/>
      <point x="361" y="604" type="line"/>
      <point x="348" y="604"/>
      <point x="344" y="606"/>
      <point x="344" y="616" type="curve"/>
    </contour>
  </outline>
</glyph>
<glyph name="summation" format="2">
  <advance width="434"/>
  <unicode hex="2211"/>
  <outline>
    <contour>
      <point x="3" y="672" type="line"/>
      <point x="410" y="672" type="line"/>
      <point x="410" y="750" type="line"/>
      <point x="3" y="750" type="line"/>
    </contour>
    <contour>
      <point x="3" y="72" type="line"/>
      <point x="3" y="-6" type="line"/>
      <point x="434" y="-6" type="line"/>
      <point x="434" y="72" type="line"/>
    </contour>
    <contour>
      <point x="196" y="378" type="line"/>
      <point x="3" y="72" type="line"/>
      <point x="43" y="-6" type="line"/>
      <point x="285" y="358" type="line"/>
      <point x="286" y="399" type="line"/>
      <point x="43" y="750" type="line"/>
      <point x="3" y="672" type="line"/>
    </contour>
  </outline>
</glyph>
<glyph name="minus" format="2">
  <advance width="538"/>
  <unicode hex="2212"/>
  <outline>
    <contour>
      <point x="40" y="291" type="line"/>
      <point x="498" y="291" type="line"/>
      <point x="498" y="369" type="line"/>
      <point x="40" y="369" type="line"/>
    </contour>
  </outline>
</glyph>
<glyph name="integral" format="2">
  <advance width="560"/>
  <unicode hex="222B"/>
  <outline>
    <contour>
      <point x="334" y="724" type="line" smooth="yes"/>
      <point x="334" y="784"/>
      <point x="366" y="830"/>
      <point x="409" y="830" type="curve"/>
      <point x="453" y="830"/>
      <point x="464" y="805"/>
      <point x="502" y="708" type="curve"/>
      <point x="536" y="717" type="line"/>
      <point x="492" y="898" type="line"/>
      <point x="458" y="898" type="line"/>
      <point x="448" y="877"/>
      <point x="437" y="870"/>
      <point x="400" y="870" type="curve"/>
      <point x="283" y="870"/>
      <point x="222" y="796"/>
      <point x="222" y="656" type="curve"/>
      <point x="222" y="6" type="line" smooth="yes"/>
      <point x="222" y="-52"/>
      <point x="192" y="-93"/>
      <point x="152" y="-93" type="curve"/>
      <point x="101" y="-93"/>
      <point x="67" y="-33"/>
      <point x="67" y="59" type="curve" smooth="yes"/>
      <point x="67" y="75" type="line"/>
      <point x="24" y="75" type="line"/>
      <point x="24" y="74" type="line" smooth="yes"/>
      <point x="24" y="-71"/>
      <point x="71" y="-140"/>
      <point x="169" y="-140" type="curve"/>
      <point x="272" y="-140"/>
      <point x="334" y="-59"/>
      <point x="334" y="74" type="curve"/>
    </contour>
  </outline>
</glyph>
<glyph name="greaterequal" format="2">
  <advance width="480"/>
  <unicode hex="2265"/>
  <outline>
    <contour>
      <point x="118" y="474" type="line"/>
      <point x="318" y="335" type="line"/>
      <point x="383" y="382" type="line"/>
      <point x="118" y="570" type="line"/>
    </contour>
    <contour>
      <point x="118" y="289" type="line"/>
      <point x="118" y="190" type="line"/>
      <point x="383" y="382" type="line"/>
      <point x="311" y="429" type="line"/>
    </contour>
    <contour>
      <point x="414" y="72" type="line"/>
      <point x="414" y="139" type="line"/>
      <point x="56" y="139" type="line"/>
      <point x="56" y="72" type="line"/>
    </contour>
  </outline>
</glyph>
<glyph name="lozenge" format="2">
  <advance width="480"/>
  <unicode hex="25CA"/>
  <outline>
    <contour>
      <point x="234" y="690" type="line"/>
      <point x="17" y="395" type="line"/>
      <point x="234" y="102" type="line"/>
      <point x="454" y="395" type="line"/>
    </contour>
    <contour>
      <point x="113" y="396" type="line"/>
      <point x="232" y="559" type="line"/>
      <point x="356" y="396" type="line"/>
      <point x="232" y="233" type="line"/>
    </contour>
  </outline>
</glyph>
<glyph name="D_E" format="2">
  <advance width="534"/>
  <outline>
    <contour>
      <point x="118" y="355" type="line"/>
      <point x="215" y="355" type="line" smooth="yes"/>
      <point x="263" y="355"/>
      <point x="284" y="333"/>
      <point x="284" y="283" type="curve"/>
      <point x="321" y="283" type="line"/>
      <point x="321" y="467" type="line"/>
      <point x="284" y="467" type="line"/>
      <point x="284" y="419"/>
      <point x="261" y="395"/>
      <point x="215" y="395" type="curve" smooth="yes"/>
      <point x="118" y="395" type="line"/>
    </contour>
    <contour>
      <point x="84" y="11" type="line"/>
      <point x="196" y="11" type="line"/>
      <point x="196" y="739" type="line"/>
      <point x="84" y="739" type="line"/>
    </contour>
    <contour>
      <point x="84" y="0" type="line"/>
      <point x="302" y="0" type="line" smooth="yes"/>
      <point x="426.0" y="0.0"/>
      <point x="487" y="71"/>
      <point x="487" y="214" type="curve" smooth="yes"/>
      <point x="487" y="536" type="line" smooth="yes"/>
      <point x="487" y="679"/>
      <point x="426.0" y="750.0"/>
      <point x="302" y="750" type="curve" smooth="yes"/>
      <point x="84" y="750" type="line"/>
      <point x="84" y="670" type="line"/>
      <point x="196" y="670" type="line"/>
      <point x="196" y="710" type="line"/>
      <point x="302" y="710" type="line" smooth="yes"/>
      <point x="347.0" y="710.0"/>
      <point x="377" y="672"/>
      <point x="377" y="614" type="curve" smooth="yes"/>
      <point x="377" y="136" type="line" smooth="yes"/>
      <point x="377" y="78"/>
      <point x="347.0" y="40.0"/>
      <point x="302" y="40" type="curve" smooth="yes"/>
      <point x="196" y="40" type="line"/>
      <point x="196" y="80" type="line"/>
      <point x="84" y="80" type="line"/>
    </contour>
    <contour>
      <point x="24" y="713" type="line"/>
      <point x="67" y="713"/>
      <point x="84" y="701"/>
      <point x="84" y="670" type="curve"/>
      <point x="141" y="670" type="line"/>
      <point x="141" y="750" type="line"/>
      <point x="24" y="750" type="line"/>
    </contour>
    <contour>
      <point x="24" y="37" type="curve"/>
      <point x="24" y="0" type="line"/>
      <point x="141" y="0" type="line"/>
      <point x="141" y="80" type="line"/>
      <point x="84" y="80" type="line"/>
      <point x="84" y="49"/>
      <point x="67" y="37"/>
    </contour>
  </outline>
</glyph>
<glyph name="E_a" format="2">
  <advance width="853"/>
  <outline>
    <contour>
      <point x="90" y="11" type="line"/>
      <point x="202" y="11" type="line"/>
      <point x="202" y="739" type="line"/>
      <point x="90" y="739" type="line"/>
    </contour>
    <contour>
      <point x="131" y="375" type="line"/>
      <point x="228" y="375" type="line" smooth="yes"/>
      <point x="276" y="375"/>
      <point x="297" y="353"/>
      <point x="297" y="303" type="curve"/>
      <point x="334" y="303" type="line"/>
      <point x="334" y="487" type="line"/>
      <point x="297" y="487" type="line"/>
      <point x="297" y="439"/>
      <point x="274" y="415"/>
      <point x="228" y="415" type="curve" smooth="yes"/>
      <point x="131" y="415" type="line"/>
    </contour>
    <contour>
      <point x="90" y="670" type="line"/>
      <point x="202" y="670" type="line"/>
      <point x="202" y="710" type="line"/>
      <point x="269" y="710" type="line" smooth="yes"/>
      <point x="359" y="710"/>
      <point x="381" y="693"/>
      <point x="415" y="598" type="curve"/>
      <point x="449" y="607" type="line"/>
      <point x="405" y="788" type="line"/>
      <point x="371" y="788" type="line"/>
      <point x="367" y="760"/>
      <point x="355" y="750"/>
      <point x="325" y="750" type="curve" smooth="yes"/>
      <point x="90" y="750" type="line"/>
    </contour>
    <contour>
      <point x="30" y="713" type="line"/>
      <point x="73" y="713"/>
      <point x="90" y="701"/>
      <point x="90" y="670" type="curve"/>
      <point x="147" y="670" type="line"/>
      <point x="147" y="750" type="line"/>
      <point x="30" y="750" type="line"/>
    </contour>
    <contour>
      <point x="33" y="37" type="curve"/>
      <point x="33" y="0" type="line"/>
      <point x="150" y="0" type="line"/>
      <point x="150" y="80" type="line"/>
      <point x="93" y="80" type="line"/>
      <point x="93" y="49"/>
      <point x="76" y="37"/>
    </contour>
    <contour>
      <point x="492" y="145" type="line"/>
      <point x="745" y="145" type="line"/>
      <point x="745" y="183" type="line"/>
      <point x="492" y="183" type="line"/>
    </contour>
    <contour>
      <point x="474" y="173" type="line" smooth="yes"/>
      <point x="433" y="47"/>
      <point x="418.0" y="39.0"/>
      <point x="321" y="39" type="curve" smooth="yes"/>
      <point x="202" y="39" type="line"/>
      <point x="202" y="77" type="line"/>
      <point x="93" y="77" type="line"/>
      <point x="93" y="0" type="line"/>
      <point x="354" y="0" type="line" smooth="yes"/>
      <point x="401.0" y="0.0"/>
      <point x="417" y="-5"/>
      <point x="423" y="-21" type="curve"/>
      <point x="457" y="-21" type="line"/>
      <point x="604" y="427" type="line"/>
      <point x="582" y="427" type="line"/>
      <point x="692" y="78" type="line" smooth="yes"/>
      <point x="701" y="50"/>
      <point x="682" y="37"/>
      <point x="631" y="37" type="curve"/>
      <point x="631" y="0" type="line"/>
      <point x="861" y="0" type="line"/>
      <point x="861" y="37" type="line"/>
      <point x="820" y="37"/>
      <point x="811" y="44"/>
      <point x="799" y="79" type="curve" smooth="yes"/>
      <point x="643" y="544" type="line"/>
      <point x="595" y="544" type="line"/>
    </contour>
  </outline>
</glyph>
<glyph name="L_a" format="2">
  <advance width="835"/>
  <outline>
    <contour>
      <point x="90" y="11" type="line"/>
      <point x="202" y="11" type="line"/>
      <point x="202" y="739" type="line"/>
      <point x="90" y="739" type="line"/>
    </contour>
    <contour>
      <point x="30" y="713" type="line"/>
      <point x="73" y="713"/>
      <point x="90" y="701"/>
      <point x="90" y="670" type="curve"/>
      <point x="202" y="670" type="line"/>
      <point x="202" y="701"/>
      <point x="219" y="713"/>
      <point x="262" y="713" type="curve"/>
      <point x="262" y="750" type="line"/>
      <point x="30" y="750" type="line"/>
    </contour>
    <contour>
      <point x="30" y="37" type="curve"/>
      <point x="30" y="0" type="line"/>
      <point x="147" y="0" type="line"/>
      <point x="147" y="80" type="line"/>
      <point x="90" y="80" type="line"/>
      <point x="90" y="49"/>
      <point x="73" y="37"/>
    </contour>
    <contour>
      <point x="455" y="145" type="line"/>
      <point x="708" y="145" type="line"/>
      <point x="708" y="183" type="line"/>
      <point x="455" y="183" type="line"/>
    </contour>
    <contour>
      <point x="30" y="37" type="curve"/>
      <point x="30" y="0" type="line"/>
      <point x="147" y="0" type="line"/>
      <point x="147" y="80" type="line"/>
      <point x="90" y="80" type="line"/>
      <point x="90" y="49"/>
      <point x="73" y="37"/>
    </contour>
    <contour>
      <point x="417" y="84" type="line"/>
      <point x="410" y="52"/>
      <point x="393" y="40"/>
      <point x="354" y="40" type="curve" smooth="yes"/>
      <point x="202" y="40" type="line"/>
      <point x="202" y="80" type="line"/>
      <point x="90" y="80" type="line"/>
      <point x="90" y="0" type="line"/>
      <point x="331" y="0" type="line" smooth="yes"/>
      <point x="376" y="0"/>
      <point x="394" y="-8"/>
      <point x="400" y="-31" type="curve"/>
      <point x="432" y="-31" type="line"/>
      <point x="570" y="427" type="line"/>
      <point x="553" y="427" type="line"/>
      <point x="663" y="78" type="line" smooth="yes"/>
      <point x="672" y="50"/>
      <point x="653" y="37"/>
      <point x="602" y="37" type="curve"/>
      <point x="602" y="0" type="line"/>
      <point x="832" y="0" type="line"/>
      <point x="832" y="37" type="line"/>
      <point x="791" y="37"/>
      <point x="782" y="44"/>
      <point x="770" y="79" type="curve" smooth="yes"/>
      <point x="614" y="544" type="line"/>
      <point x="566" y="544" type="line"/>
    </contour>
  </outline>
</glyph>
<glyph name="Q.alt_1" format="2">
  <advance width="480"/>
  <outline>
    <contour>
      <point x="240" y="53" type="curve"/>
      <point x="191" y="53"/>
      <point x="157.0" y="92.0"/>
      <point x="157" y="149" type="curve" smooth="yes"/>
      <point x="157" y="624" type="line" smooth="yes"/>
      <point x="157" y="679"/>
      <point x="193" y="720"/>
      <point x="240" y="720" type="curve"/>
      <point x="288" y="720"/>
      <point x="323" y="680"/>
      <point x="323" y="624" type="curve" smooth="yes"/>
      <point x="323" y="149" type="line" smooth="yes"/>
      <point x="323.0" y="93.0"/>
      <point x="288" y="53"/>
    </contour>
    <contour>
      <point x="249" y="13" type="curve"/>
      <point x="300" y="13.0"/>
      <point x="332" y="-22"/>
      <point x="332" y="-84" type="curve" smooth="yes"/>
      <point x="332" y="-98" type="line" smooth="yes"/>
      <point x="332" y="-239"/>
      <point x="386" y="-293"/>
      <point x="520" y="-293" type="curve" smooth="yes"/>
      <point x="521" y="-293" type="line"/>
      <point x="521" y="-254" type="line"/>
      <point x="500" y="-254" type="line" smooth="yes"/>
      <point x="457" y="-254"/>
      <point x="427" y="-218"/>
      <point x="427" y="-162" type="curve"/>
      <point x="427.0" y="-64.0"/>
      <point x="391" y="-3"/>
      <point x="296" y="46" type="curve"/>
      <point x="296" y="19" type="line"/>
      <point x="395" y="63"/>
      <point x="433.0" y="128.0"/>
      <point x="433" y="227" type="curve" smooth="yes"/>
      <point x="433" y="546" type="line" smooth="yes"/>
      <point x="433" y="681"/>
      <point x="361" y="760"/>
      <point x="240" y="760" type="curve"/>
      <point x="113" y="760"/>
      <point x="43" y="685"/>
      <point x="43" y="546" type="curve" smooth="yes"/>
      <point x="43" y="227" type="line" smooth="yes"/>
      <point x="43" y="89.0"/>
      <point x="117" y="13.0"/>
    </contour>
  </outline>
</glyph>
<glyph name="R_R" format="2">
  <advance width="1065"/>
  <outline>
    <contour>
      <point x="90" y="11" type="line"/>
      <point x="202" y="11" type="line"/>
      <point x="202" y="739" type="line"/>
      <point x="90" y="739" type="line"/>
    </contour>
    <contour>
      <point x="280" y="323" type="line"/>
      <point x="324" y="323"/>
      <point x="353.0" y="282.0"/>
      <point x="353" y="223" type="curve" smooth="yes"/>
      <point x="353" y="195" type="line" smooth="yes"/>
      <point x="353" y="66"/>
      <point x="404" y="0"/>
      <point x="541" y="0" type="curve"/>
      <point x="541" y="0"/>
      <point x="558" y="0"/>
      <point x="558" y="0" type="curve"/>
      <point x="558" y="37" type="line"/>
      <point x="541" y="37" type="line" smooth="yes"/>
      <point x="497" y="37"/>
      <point x="468" y="77"/>
      <point x="468" y="136" type="curve" smooth="yes"/>
      <point x="468" y="149" type="line" smooth="yes"/>
      <point x="468.0" y="290.0"/>
      <point x="407" y="363"/>
      <point x="280" y="363" type="curve"/>
      <point x="280" y="363"/>
      <point x="263" y="363"/>
      <point x="263" y="363" type="curve"/>
      <point x="263" y="323" type="line"/>
    </contour>
    <contour>
      <point x="474" y="535" type="curve"/>
      <point x="474" y="676"/>
      <point x="413" y="750"/>
      <point x="286" y="750" type="curve" smooth="yes"/>
      <point x="30" y="750" type="line"/>
      <point x="30" y="713" type="line"/>
      <point x="77" y="713"/>
      <point x="90" y="704"/>
      <point x="90" y="670" type="curve"/>
      <point x="198" y="670" type="line"/>
      <point x="198" y="710" type="line"/>
      <point x="286" y="710" type="line" smooth="yes"/>
      <point x="330" y="710"/>
      <point x="359" y="673"/>
      <point x="359" y="614" type="curve" smooth="yes"/>
      <point x="359" y="461" type="line" smooth="yes"/>
      <point x="359.0" y="402.0"/>
      <point x="330" y="363"/>
      <point x="286" y="363" type="curve" smooth="yes"/>
      <point x="250" y="363" type="line"/>
      <point x="250" y="323" type="line"/>
      <point x="286" y="323" type="line" smooth="yes"/>
      <point x="413" y="323"/>
      <point x="474" y="394"/>
    </contour>
    <contour>
      <point x="90" y="80" type="line"/>
      <point x="90" y="46"/>
      <point x="77" y="37"/>
      <point x="30" y="37" type="curve"/>
      <point x="30" y="0" type="line"/>
      <point x="262" y="0" type="line"/>
      <point x="262" y="37" type="line"/>
      <point x="215" y="37"/>
      <point x="202" y="46"/>
      <point x="202" y="80" type="curve"/>
    </contour>
    <contour>
      <point x="601" y="11" type="line"/>
      <point x="713" y="11" type="line"/>
      <point x="713" y="739" type="line"/>
      <point x="601" y="739" type="line"/>
    </contour>
    <contour>
      <point x="601" y="0" type="line"/>
      <point x="773" y="0" type="line"/>
      <point x="773" y="37" type="line"/>
      <point x="726" y="37"/>
      <point x="713" y="46"/>
      <point x="713" y="80" type="curve"/>
      <point x="601" y="80" type="line"/>
    </contour>
    <contour>
      <point x="791" y="323" type="line"/>
      <point x="835" y="323"/>
      <point x="864" y="282"/>
      <point x="864" y="223" type="curve" smooth="yes"/>
      <point x="864" y="195" type="line" smooth="yes"/>
      <point x="864" y="66"/>
      <point x="915" y="0"/>
      <point x="1052" y="0" type="curve"/>
      <point x="1052" y="0"/>
      <point x="1073" y="0"/>
      <point x="1073" y="0" type="curve"/>
      <point x="1073" y="37" type="line"/>
      <point x="1052" y="37" type="line" smooth="yes"/>
      <point x="1008" y="37"/>
      <point x="979" y="77"/>
      <point x="979" y="136" type="curve" smooth="yes"/>
      <point x="979" y="149" type="line" smooth="yes"/>
      <point x="979" y="290"/>
      <point x="918" y="363"/>
      <point x="791" y="363" type="curve"/>
      <point x="791" y="363"/>
      <point x="774" y="363"/>
      <point x="774" y="363" type="curve"/>
      <point x="774" y="323" type="line"/>
    </contour>
    <contour>
      <point x="985" y="535" type="curve"/>
      <point x="985" y="676"/>
      <point x="924" y="750"/>
      <point x="797" y="750" type="curve" smooth="yes"/>
      <point x="541" y="750" type="line"/>
      <point x="541" y="713" type="line"/>
      <point x="588" y="713"/>
      <point x="601" y="704"/>
      <point x="601" y="670" type="curve"/>
      <point x="709" y="670" type="line"/>
      <point x="709" y="710" type="line"/>
      <point x="797" y="710" type="line" smooth="yes"/>
      <point x="841" y="710"/>
      <point x="870.0" y="673.0"/>
      <point x="870" y="614" type="curve" smooth="yes"/>
      <point x="870" y="461" type="line" smooth="yes"/>
      <point x="870" y="402"/>
      <point x="841" y="363"/>
      <point x="797" y="363" type="curve" smooth="yes"/>
      <point x="761" y="363" type="line"/>
      <point x="761" y="323" type="line"/>
      <point x="797" y="323" type="line" smooth="yes"/>
      <point x="924.0" y="323"/>
      <point x="985.0" y="394.0"/>
    </contour>
  </outline>
</glyph>
<glyph name="T_E" format="2">
  <advance width="948"/>
  <outline>
    <contour>
      <point x="201" y="11" type="line"/>
      <point x="313" y="11" type="line"/>
      <point x="313" y="731" type="line"/>
      <point x="201" y="731" type="line"/>
    </contour>
    <contour>
      <point x="141" y="37" type="curve"/>
      <point x="141" y="0" type="line"/>
      <point x="373" y="0" type="line"/>
      <point x="373" y="37" type="line"/>
      <point x="330" y="37"/>
      <point x="313" y="49"/>
      <point x="313" y="80" type="curve"/>
      <point x="201" y="80" type="line"/>
      <point x="201" y="49"/>
      <point x="184" y="37"/>
    </contour>
    <contour>
      <point x="596" y="375" type="line"/>
      <point x="693" y="375" type="line" smooth="yes"/>
      <point x="741" y="375"/>
      <point x="762" y="353"/>
      <point x="762" y="303" type="curve"/>
      <point x="799" y="303" type="line"/>
      <point x="799" y="487" type="line"/>
      <point x="762" y="487" type="line"/>
      <point x="762" y="439"/>
      <point x="739" y="415"/>
      <point x="693" y="415" type="curve" smooth="yes"/>
      <point x="596" y="415" type="line"/>
    </contour>
    <contour>
      <point x="555" y="0" type="line"/>
      <point x="828" y="0" type="line" smooth="yes"/>
      <point x="873" y="0"/>
      <point x="891" y="-8"/>
      <point x="897" y="-31" type="curve"/>
      <point x="934" y="-31" type="line"/>
      <point x="934" y="171" type="line"/>
      <point x="899" y="171" type="line"/>
      <point x="886" y="62"/>
      <point x="865" y="40"/>
      <point x="775" y="40" type="curve" smooth="yes"/>
      <point x="667" y="40" type="line"/>
      <point x="667" y="80" type="line"/>
      <point x="555" y="80" type="line"/>
    </contour>
    <contour>
      <point x="583" y="713" type="line"/>
      <point x="734" y="713" type="line" smooth="yes"/>
      <point x="824" y="713"/>
      <point x="846" y="693"/>
      <point x="880" y="598" type="curve"/>
      <point x="914" y="608" type="line"/>
      <point x="870" y="789" type="line"/>
      <point x="836" y="788" type="line"/>
      <point x="832" y="760"/>
      <point x="820" y="750"/>
      <point x="790" y="750" type="curve" smooth="yes"/>
      <point x="497" y="750" type="line" smooth="yes"/>
      <point x="467.0" y="750.0"/>
      <point x="457" y="758"/>
      <point x="451" y="787" type="curve"/>
      <point x="415" y="787" type="line"/>
      <point x="409" y="758"/>
      <point x="399.0" y="750.0"/>
      <point x="369" y="750" type="curve" smooth="yes"/>
      <point x="132" y="750" type="line" smooth="yes"/>
      <point x="101" y="750"/>
      <point x="91" y="758"/>
      <point x="86" y="787" type="curve"/>
      <point x="52" y="787" type="line"/>
      <point x="8" y="576" type="line"/>
      <point x="45" y="567" type="line"/>
      <point x="79" y="684"/>
      <point x="107" y="713"/>
      <point x="188" y="713" type="curve" smooth="yes"/>
      <point x="509" y="713" type="line" smooth="yes"/>
      <point x="539" y="713"/>
      <point x="555" y="703"/>
      <point x="555" y="673" type="curve" smooth="yes"/>
      <point x="555" y="11" type="line"/>
      <point x="667" y="11" type="line"/>
      <point x="667" y="739" type="line"/>
    </contour>
    <component base="smallcomponents_btm_half_serif" xOffset="459"/>
  </outline>
</glyph>
<glyph name="T_T" format="2">
  <advance width="912"/>
  <outline>
    <contour>
      <point x="201" y="11" type="line"/>
      <point x="313" y="11" type="line"/>
      <point x="313" y="739" type="line"/>
      <point x="201" y="739" type="line"/>
    </contour>
    <contour>
      <point x="593" y="11" type="line"/>
      <point x="705" y="11" type="line"/>
      <point x="705" y="739" type="line"/>
      <point x="593" y="739" type="line"/>
    </contour>
    <contour>
      <point x="132" y="750" type="line" smooth="yes"/>
      <point x="102" y="750"/>
      <point x="92" y="758"/>
      <point x="86" y="787" type="curve"/>
      <point x="52" y="787" type="line"/>
      <point x="8" y="576" type="line"/>
      <point x="45" y="567" type="line"/>
      <point x="79" y="685"/>
      <point x="111" y="710"/>
      <point x="188" y="710" type="curve"/>
      <point x="391" y="710" type="line" smooth="yes"/>
      <point x="421" y="710"/>
      <point x="431" y="702"/>
      <point x="437" y="673" type="curve"/>
      <point x="473" y="673" type="line"/>
      <point x="479" y="702"/>
      <point x="489" y="710"/>
      <point x="519" y="710" type="curve" smooth="yes"/>
      <point x="724" y="710" type="line" smooth="yes"/>
      <point x="801" y="710"/>
      <point x="833" y="685"/>
      <point x="867" y="567" type="curve"/>
      <point x="904" y="576" type="line"/>
      <point x="860" y="787" type="line"/>
      <point x="826" y="787" type="line"/>
      <point x="820" y="757"/>
      <point x="811" y="750"/>
      <point x="780" y="750" type="curve"/>
      <point x="519" y="750" type="line" smooth="yes"/>
      <point x="489" y="750"/>
      <point x="479" y="758"/>
      <point x="473" y="787" type="curve"/>
      <point x="437" y="787" type="line"/>
      <point x="431" y="758"/>
      <point x="421" y="750"/>
      <point x="391" y="750" type="curve" smooth="yes"/>
    </contour>
    <contour>
      <point x="141" y="37" type="curve"/>
      <point x="141" y="0" type="line"/>
      <point x="373" y="0" type="line"/>
      <point x="373" y="37" type="line"/>
      <point x="330" y="37"/>
      <point x="313" y="49"/>
      <point x="313" y="80" type="curve"/>
      <point x="201" y="80" type="line"/>
      <point x="201" y="49"/>
      <point x="184" y="37"/>
    </contour>
    <contour>
      <point x="534" y="37" type="curve"/>
      <point x="534" y="0" type="line"/>
      <point x="766" y="0" type="line"/>
      <point x="766" y="37" type="line"/>
      <point x="723" y="37"/>
      <point x="706" y="49"/>
      <point x="706" y="80" type="curve"/>
      <point x="594" y="80" type="line"/>
      <point x="594" y="49"/>
      <point x="577" y="37"/>
    </contour>
  </outline>
</glyph>
<glyph name="ampersand.alt_1" format="2">
  <advance width="544"/>
  <outline>
    <contour>
      <point x="244" y="514" type="curve"/>
      <point x="290" y="514"/>
      <point x="312" y="493"/>
      <point x="340" y="435" type="curve"/>
      <point x="372" y="444" type="line"/>
      <point x="342" y="558" type="line"/>
      <point x="311" y="558" type="line"/>
      <point x="301" y="531"/>
      <point x="288" y="550"/>
      <point x="236" y="550" type="curve"/>
      <point x="132" y="550"/>
      <point x="72" y="499"/>
      <point x="72" y="409" type="curve"/>
      <point x="72" y="349"/>
      <point x="95" y="317"/>
      <point x="167" y="281" type="curve"/>
      <point x="167" y="305" type="line"/>
      <point x="96" y="272"/>
      <point x="72" y="235"/>
      <point x="72" y="154" type="curve"/>
      <point x="72" y="45"/>
      <point x="124" y="-10"/>
      <point x="230" y="-10" type="curve"/>
      <point x="339" y="-10"/>
      <point x="390" y="54"/>
      <point x="390" y="189" type="curve" smooth="yes"/>
      <point x="390" y="190" type="line"/>
      <point x="437" y="206"/>
      <point x="472" y="262"/>
      <point x="472" y="320" type="curve" smooth="yes"/>
      <point x="472" y="358"/>
      <point x="440" y="391"/>
      <point x="402" y="391" type="curve" smooth="yes"/>
      <point x="365" y="391"/>
      <point x="334" y="358"/>
      <point x="334" y="319" type="curve" smooth="yes"/>
      <point x="334" y="285"/>
      <point x="365" y="258"/>
      <point x="402" y="258" type="curve"/>
      <point x="402" y="258"/>
      <point x="391" y="226"/>
      <point x="337" y="226" type="curve" smooth="yes"/>
      <point x="309" y="226"/>
      <point x="293" y="214"/>
      <point x="293" y="188" type="curve" smooth="yes"/>
      <point x="293" y="114" type="line" smooth="yes"/>
      <point x="293" y="57"/>
      <point x="271" y="26"/>
      <point x="230" y="26" type="curve"/>
      <point x="197" y="26"/>
      <point x="178" y="56"/>
      <point x="178" y="104" type="curve" smooth="yes"/>
      <point x="178" y="192" type="line" smooth="yes"/>
      <point x="178" y="251"/>
      <point x="193" y="275"/>
      <point x="230" y="275" type="curve" smooth="yes"/>
      <point x="253" y="275" type="line"/>
      <point x="253" y="313" type="line"/>
      <point x="230" y="313" type="line" smooth="yes"/>
      <point x="197" y="313"/>
      <point x="178" y="338"/>
      <point x="178" y="382" type="curve" smooth="yes"/>
      <point x="178" y="437" type="line" smooth="yes"/>
      <point x="178" y="480"/>
      <point x="208" y="514"/>
    </contour>
  </outline>
</glyph>
<glyph name="apostrophe" format="2">
  <advance width="277"/>
  <outline>
    <contour>
      <point x="119" y="596" type="line"/>
      <point x="170" y="615"/>
      <point x="205" y="658"/>
      <point x="205" y="710" type="curve"/>
      <point x="205" y="752"/>
      <point x="176" y="784"/>
      <point x="138" y="785" type="curve" smooth="yes"/>
      <point x="102" y="786"/>
      <point x="72" y="756"/>
      <point x="72" y="719" type="curve" smooth="yes"/>
      <point x="72" y="661"/>
      <point x="137" y="657"/>
      <point x="137" y="657" type="curve"/>
      <point x="137" y="657"/>
      <point x="129" y="636"/>
      <point x="103" y="626" type="curve"/>
    </contour>
  </outline>
</glyph>
<glyph name="commaaccent" format="2">
  <advance width="174"/>
  <outline>
    <contour>
      <point x="71" y="-48" type="line"/>
      <point x="113" y="-32"/>
      <point x="142" y="3"/>
      <point x="142" y="46" type="curve"/>
      <point x="142" y="81"/>
      <point x="118" y="107"/>
      <point x="87" y="108" type="curve" smooth="yes"/>
      <point x="57" y="109"/>
      <point x="32" y="84"/>
      <point x="32" y="53" type="curve" smooth="yes"/>
      <point x="32" y="6"/>
      <point x="86" y="2"/>
      <point x="86" y="2" type="curve"/>
      <point x="86" y="2"/>
      <point x="79" y="-15"/>
      <point x="58" y="-23" type="curve"/>
    </contour>
  </outline>
</glyph>
<glyph name="dagger.alt_1" format="2">
  <advance width="516"/>
  <outline>
    <contour>
      <point x="258" y="761" type="curve"/>
      <point x="232" y="761"/>
      <point x="205" y="748"/>
      <point x="205" y="708" type="curve" smooth="yes"/>
      <point x="205" y="672"/>
      <point x="233" y="653"/>
      <point x="240" y="576" type="curve"/>
      <point x="173" y="581"/>
      <point x="157" y="610"/>
      <point x="127" y="610" type="curve" smooth="yes"/>
      <point x="86" y="610"/>
      <point x="72" y="582"/>
      <point x="72" y="559" type="curve"/>
      <point x="72" y="533"/>
      <point x="85" y="506"/>
      <point x="125" y="506" type="curve" smooth="yes"/>
      <point x="156" y="506"/>
      <point x="173" y="535"/>
      <point x="240" y="539" type="curve"/>
      <point x="233" y="454"/>
      <point x="189" y="461"/>
      <point x="189" y="428" type="curve" smooth="yes"/>
      <point x="189" y="399"/>
      <point x="224" y="327"/>
      <point x="237" y="28" type="curve" smooth="yes"/>
      <point x="249" y="-57" type="line"/>
      <point x="267" y="-57" type="line"/>
      <point x="279" y="28" type="line"/>
      <point x="291" y="327"/>
      <point x="326" y="399"/>
      <point x="326" y="428" type="curve" smooth="yes"/>
      <point x="326" y="461"/>
      <point x="281" y="454"/>
      <point x="275" y="539" type="curve"/>
      <point x="345" y="535"/>
      <point x="360" y="506"/>
      <point x="393" y="506" type="curve" smooth="yes"/>
      <point x="432" y="506"/>
      <point x="444" y="533"/>
      <point x="444" y="559" type="curve"/>
      <point x="444" y="582"/>
      <point x="430" y="610"/>
      <point x="391" y="610" type="curve" smooth="yes"/>
      <point x="359" y="610"/>
      <point x="342" y="581"/>
      <point x="275" y="576" type="curve"/>
      <point x="281" y="653"/>
      <point x="310" y="672"/>
      <point x="310" y="708" type="curve" smooth="yes"/>
      <point x="310" y="748"/>
      <point x="282" y="761"/>
    </contour>
  </outline>
</glyph>
<glyph name="daggerdbl.alt_1" format="2">
  <advance width="516"/>
  <outline>
    <contour>
      <point x="237" y="28" type="line"/>
      <point x="249" y="-57" type="line"/>
      <point x="266" y="-57" type="line"/>
      <point x="279" y="28" type="line"/>
      <point x="258" y="14" type="line"/>
    </contour>
    <contour>
      <point x="316" y="309" type="curve"/>
      <point x="302" y="196" type="line"/>
      <point x="327" y="196" type="line"/>
      <point x="327" y="183" type="line"/>
      <point x="187" y="183" type="line"/>
      <point x="187" y="196" type="line"/>
      <point x="213" y="196" type="line"/>
      <point x="200" y="309" type="line"/>
      <point x="150" y="309"/>
      <point x="107" y="269"/>
      <point x="107" y="220" type="curve" smooth="yes"/>
      <point x="107" y="141"/>
      <point x="258" y="35"/>
      <point x="258" y="35" type="curve"/>
      <point x="258" y="35"/>
      <point x="405" y="141"/>
      <point x="407" y="220" type="curve"/>
      <point x="407" y="269"/>
      <point x="365" y="309"/>
    </contour>
    <contour>
      <point x="240" y="539" type="curve"/>
      <point x="233" y="454"/>
      <point x="189" y="460"/>
      <point x="189" y="429" type="curve" smooth="yes"/>
      <point x="189" y="406"/>
      <point x="210" y="359"/>
      <point x="226" y="196" type="curve"/>
      <point x="289" y="196" type="line"/>
      <point x="305" y="359"/>
      <point x="326" y="406"/>
      <point x="326" y="429" type="curve" smooth="yes"/>
      <point x="326" y="460"/>
      <point x="279" y="454"/>
      <point x="274" y="539" type="curve"/>
      <point x="344" y="535"/>
      <point x="360" y="506"/>
      <point x="393" y="506" type="curve" smooth="yes"/>
      <point x="432" y="506"/>
      <point x="444" y="533"/>
      <point x="444" y="559" type="curve"/>
      <point x="444" y="582"/>
      <point x="430" y="610"/>
      <point x="391" y="610" type="curve" smooth="yes"/>
      <point x="359" y="610"/>
      <point x="342" y="581"/>
      <point x="275" y="576" type="curve"/>
      <point x="281" y="653"/>
      <point x="310" y="672"/>
      <point x="310" y="708" type="curve" smooth="yes"/>
      <point x="310" y="748"/>
      <point x="282" y="761"/>
      <point x="258" y="761" type="curve"/>
      <point x="232" y="761"/>
      <point x="205" y="748"/>
      <point x="205" y="708" type="curve" smooth="yes"/>
      <point x="205" y="672"/>
      <point x="233" y="653"/>
      <point x="240" y="576" type="curve"/>
      <point x="173" y="581"/>
      <point x="157" y="610"/>
      <point x="127" y="610" type="curve" smooth="yes"/>
      <point x="86" y="610"/>
      <point x="72" y="582"/>
      <point x="72" y="559" type="curve"/>
      <point x="72" y="533"/>
      <point x="85" y="506"/>
      <point x="125" y="506" type="curve" smooth="yes"/>
      <point x="156" y="506"/>
      <point x="173" y="535"/>
    </contour>
  </outline>
</glyph>
<glyph name="endash_small" format="2">
  <advance width="578"/>
  <outline>
    <contour>
      <point x="0" y="242" type="line"/>
      <point x="578" y="242" type="line"/>
      <point x="578" y="318" type="line"/>
      <point x="0" y="318" type="line"/>
    </contour>
  </outline>
</glyph>
<glyph name="florin" format="2">
  <advance width="560"/>
  <outline>
    <contour>
      <point x="374" y="614" type="line" smooth="yes"/>
      <point x="382" y="680"/>
      <point x="409" y="720"/>
      <point x="449" y="720" type="curve"/>
      <point x="493" y="720"/>
      <point x="504" y="695"/>
      <point x="542" y="598" type="curve"/>
      <point x="576" y="607" type="line"/>
      <point x="532" y="788" type="line"/>
      <point x="498" y="788" type="line"/>
      <point x="488" y="767"/>
      <point x="477" y="760"/>
      <point x="440" y="760" type="curve"/>
      <point x="331" y="760"/>
      <point x="282" y="707"/>
      <point x="262" y="545" type="curve" smooth="yes"/>
      <point x="182" y="-104" type="line" smooth="yes"/>
      <point x="175" y="-162"/>
      <point x="152" y="-203"/>
      <point x="112" y="-203" type="curve"/>
      <point x="61" y="-203"/>
      <point x="27" y="-143"/>
      <point x="27" y="-51" type="curve" smooth="yes"/>
      <point x="27" y="-35" type="line"/>
      <point x="-16" y="-35" type="line"/>
      <point x="-16" y="-36" type="line" smooth="yes"/>
      <point x="-16" y="-189"/>
      <point x="32" y="-250"/>
      <point x="129" y="-250" type="curve"/>
      <point x="220" y="-250"/>
      <point x="274" y="-196"/>
      <point x="294" y="-35" type="curve" smooth="yes"/>
    </contour>
    <contour>
      <point x="458" y="325" type="line"/>
      <point x="111" y="325" type="line"/>
      <point x="111" y="285" type="line"/>
      <point x="458" y="285" type="line"/>
    </contour>
  </outline>
</glyph>
<glyph name="hyphen_small" format="2">
  <advance width="540"/>
  <outline>
    <contour>
      <point x="70" y="242" type="line"/>
      <point x="468" y="242" type="line"/>
      <point x="468" y="318" type="line"/>
      <point x="70" y="318" type="line"/>
    </contour>
  </outline>
</glyph>
<glyph name="r_r" format="2">
  <advance width="953"/>
  <outline>
    <contour>
      <point x="84" y="11" type="line"/>
      <point x="194" y="11" type="line"/>
      <point x="194" y="529" type="line"/>
      <point x="84" y="529" type="line"/>
    </contour>
    <contour>
      <point x="84" y="460" type="line"/>
      <point x="194" y="460" type="line"/>
      <point x="194" y="501" type="line"/>
      <point x="260" y="501" type="line" smooth="yes"/>
      <point x="304" y="501"/>
      <point x="333" y="463"/>
      <point x="333" y="404" type="curve" smooth="yes"/>
      <point x="333" y="353" type="line" smooth="yes"/>
      <point x="333" y="294"/>
      <point x="304" y="255"/>
      <point x="260" y="255" type="curve" smooth="yes"/>
      <point x="234" y="255" type="line"/>
      <point x="234" y="218" type="line"/>
      <point x="255" y="218" type="line"/>
      <point x="294" y="218"/>
      <point x="328" y="169"/>
      <point x="328" y="112" type="curve"/>
      <point x="328" y="34"/>
      <point x="372" y="0"/>
      <point x="470" y="0" type="curve"/>
      <point x="509" y="0" type="line"/>
      <point x="509" y="37" type="line"/>
      <point x="473" y="37" type="line" smooth="yes"/>
      <point x="449" y="37"/>
      <point x="430" y="70"/>
      <point x="430" y="112" type="curve"/>
      <point x="430" y="182"/>
      <point x="390" y="229"/>
      <point x="315" y="247" type="curve"/>
      <point x="315" y="223" type="line"/>
      <point x="401" y="257"/>
      <point x="438" y="301"/>
      <point x="438" y="367" type="curve"/>
      <point x="438" y="485"/>
      <point x="382" y="540"/>
      <point x="260" y="540" type="curve" smooth="yes"/>
      <point x="84" y="540" type="line"/>
    </contour>
    <contour>
      <point x="24" y="37" type="curve"/>
      <point x="24" y="0" type="line"/>
      <point x="254" y="0" type="line"/>
      <point x="254" y="37" type="line"/>
      <point x="211" y="37"/>
      <point x="194" y="49"/>
      <point x="194" y="80" type="curve"/>
      <point x="84" y="80" type="line"/>
      <point x="84" y="49"/>
      <point x="67" y="37"/>
    </contour>
    <contour>
      <point x="24" y="503" type="line"/>
      <point x="67" y="503"/>
      <point x="84" y="491"/>
      <point x="84" y="460" type="curve"/>
      <point x="141" y="460" type="line"/>
      <point x="141" y="540" type="line"/>
      <point x="24" y="540" type="line"/>
    </contour>
    <contour>
      <point x="553" y="11" type="line"/>
      <point x="663" y="11" type="line"/>
      <point x="663" y="529" type="line"/>
      <point x="553" y="529" type="line"/>
    </contour>
    <contour>
      <point x="553" y="460" type="line"/>
      <point x="663" y="460" type="line"/>
      <point x="663" y="501" type="line"/>
      <point x="729" y="501" type="line" smooth="yes"/>
      <point x="773" y="501"/>
      <point x="802" y="463"/>
      <point x="802" y="404" type="curve" smooth="yes"/>
      <point x="802" y="353" type="line" smooth="yes"/>
      <point x="802" y="294"/>
      <point x="773" y="255"/>
      <point x="729" y="255" type="curve" smooth="yes"/>
      <point x="703" y="255" type="line"/>
      <point x="703" y="218" type="line"/>
      <point x="724" y="218" type="line"/>
      <point x="763" y="218"/>
      <point x="797" y="169"/>
      <point x="797" y="112" type="curve"/>
      <point x="797" y="34"/>
      <point x="841" y="0"/>
      <point x="939" y="0" type="curve"/>
      <point x="948" y="0" type="line"/>
      <point x="948" y="37" type="line"/>
      <point x="942" y="37" type="line" smooth="yes"/>
      <point x="918" y="37"/>
      <point x="899" y="70"/>
      <point x="899" y="112" type="curve"/>
      <point x="899" y="182"/>
      <point x="859" y="229"/>
      <point x="784" y="247" type="curve"/>
      <point x="784" y="223" type="line"/>
      <point x="870" y="257"/>
      <point x="907" y="301"/>
      <point x="907" y="367" type="curve"/>
      <point x="907" y="485"/>
      <point x="851" y="540"/>
      <point x="729" y="540" type="curve" smooth="yes"/>
      <point x="553" y="540" type="line"/>
    </contour>
    <contour>
      <point x="493" y="503" type="line"/>
      <point x="536" y="503"/>
      <point x="553" y="491"/>
      <point x="553" y="460" type="curve"/>
      <point x="610" y="460" type="line"/>
      <point x="610" y="540" type="line"/>
      <point x="493" y="540" type="line"/>
    </contour>
    <contour>
      <point x="553" y="0" type="line"/>
      <point x="723" y="0" type="line"/>
      <point x="723" y="37" type="line"/>
      <point x="680" y="37"/>
      <point x="663" y="49"/>
      <point x="663" y="80" type="curve"/>
      <point x="606" y="80" type="line"/>
      <point x="553" y="80" type="line"/>
    </contour>
  </outline>
</glyph>
<glyph name="soundrecordingcopyright" format="2">
  <advance width="837"/>
  <outline>
    <contour>
      <point x="72" y="366" type="curve"/>
      <point x="72" y="127"/>
      <point x="202" y="-5"/>
      <point x="428" y="-5" type="curve"/>
      <point x="643" y="-5"/>
      <point x="765" y="127"/>
      <point x="765" y="366" type="curve"/>
      <point x="765" y="612"/>
      <point x="636" y="750"/>
      <point x="428" y="750" type="curve"/>
      <point x="202" y="750"/>
      <point x="72" y="618"/>
    </contour>
    <contour>
      <point x="136" y="366" type="curve"/>
      <point x="136" y="578"/>
      <point x="238" y="693"/>
      <point x="428" y="693" type="curve"/>
      <point x="604" y="693"/>
      <point x="705" y="573"/>
      <point x="705" y="366" type="curve"/>
      <point x="705" y="164"/>
      <point x="610" y="49"/>
      <point x="428" y="49" type="curve"/>
      <point x="238" y="49"/>
      <point x="136" y="164"/>
    </contour>
    <contour>
      <point x="305" y="144" type="line"/>
      <point x="402" y="144" type="line"/>
      <point x="402" y="597" type="line"/>
      <point x="305" y="597" type="line"/>
    </contour>
    <contour>
      <point x="305" y="536" type="line"/>
      <point x="402" y="536" type="line"/>
      <point x="402" y="572" type="line"/>
      <point x="459" y="572" type="line" smooth="yes"/>
      <point x="498" y="572"/>
      <point x="523" y="539"/>
      <point x="523" y="487" type="curve" smooth="yes"/>
      <point x="523" y="425" type="line" smooth="yes"/>
      <point x="523" y="374"/>
      <point x="498" y="340"/>
      <point x="459" y="340" type="curve" smooth="yes"/>
      <point x="437" y="340" type="line"/>
      <point x="437" y="307" type="line"/>
      <point x="459" y="307" type="line" smooth="yes"/>
      <point x="565" y="307"/>
      <point x="615" y="354"/>
      <point x="615" y="455" type="curve"/>
      <point x="615" y="557"/>
      <point x="565" y="606"/>
      <point x="459" y="606" type="curve" smooth="yes"/>
      <point x="305" y="606" type="line"/>
    </contour>
    <contour>
      <point x="253" y="166" type="curve"/>
      <point x="253" y="134" type="line"/>
      <point x="454" y="134" type="line"/>
      <point x="454" y="166" type="line"/>
      <point x="417" y="166"/>
      <point x="402" y="177"/>
      <point x="402" y="204" type="curve"/>
      <point x="305" y="204" type="line"/>
      <point x="305" y="177"/>
      <point x="291" y="166"/>
    </contour>
    <contour>
      <point x="253" y="574" type="line"/>
      <point x="291" y="574"/>
      <point x="305" y="563"/>
      <point x="305" y="536" type="curve"/>
      <point x="355" y="536" type="line"/>
      <point x="355" y="606" type="line"/>
      <point x="253" y="606" type="line"/>
    </contour>
  </outline>
</glyph>
<glyph name="swiss_franc" format="2">
  <advance width="540"/>
  <outline>
    <contour>
      <point x="281" y="273" type="line"/>
      <point x="44" y="273" type="line"/>
      <point x="44" y="234" type="line"/>
      <point x="281" y="234" type="line" smooth="yes"/>
    </contour>
    <contour>
      <point x="108" y="118" type="line"/>
      <point x="218" y="118" type="line"/>
      <point x="218" y="636" type="line"/>
      <point x="108" y="636" type="line"/>
    </contour>
    <contour>
      <point x="149" y="375" type="line"/>
      <point x="269" y="375" type="line" smooth="yes"/>
      <point x="296" y="375"/>
      <point x="308" y="356"/>
      <point x="308" y="314" type="curve"/>
      <point x="340" y="314" type="line"/>
      <point x="340" y="466" type="line"/>
      <point x="308" y="466" type="line"/>
      <point x="308" y="431"/>
      <point x="295" y="414"/>
      <point x="269" y="414" type="curve" smooth="yes"/>
      <point x="149" y="414" type="line"/>
    </contour>
    <contour>
      <point x="108" y="570" type="line"/>
      <point x="218" y="570" type="line"/>
      <point x="218" y="608" type="line"/>
      <point x="288" y="608" type="line" smooth="yes"/>
      <point x="376" y="608"/>
      <point x="398" y="591"/>
      <point x="434" y="495" type="curve"/>
      <point x="467" y="504" type="line"/>
      <point x="426" y="666" type="line"/>
      <point x="393" y="666" type="line"/>
      <point x="392" y="652"/>
      <point x="379" y="647"/>
      <point x="344" y="647" type="curve" smooth="yes"/>
      <point x="108" y="647" type="line"/>
    </contour>
    <contour>
      <point x="48" y="144" type="curve"/>
      <point x="48" y="107" type="line"/>
      <point x="278" y="107" type="line"/>
      <point x="278" y="144" type="line"/>
      <point x="235" y="144"/>
      <point x="218" y="156"/>
      <point x="218" y="187" type="curve"/>
      <point x="108" y="187" type="line"/>
      <point x="108" y="156"/>
      <point x="91" y="144"/>
    </contour>
    <contour>
      <point x="48" y="610" type="line"/>
      <point x="91" y="610"/>
      <point x="108" y="598"/>
      <point x="108" y="567" type="curve"/>
      <point x="165" y="567" type="line"/>
      <point x="165" y="647" type="line"/>
      <point x="48" y="647" type="line"/>
    </contour>
  </outline>
</glyph>
<glyph name="t_e" format="2">
  <advance width="880"/>
  <outline>
    <contour>
      <point x="164" y="11" type="line"/>
      <point x="274" y="11" type="line"/>
      <point x="274" y="529" type="line"/>
      <point x="164" y="529" type="line"/>
    </contour>
    <contour>
      <point x="104" y="37" type="curve"/>
      <point x="104" y="0" type="line"/>
      <point x="334" y="0" type="line"/>
      <point x="334" y="37" type="line"/>
      <point x="291" y="37"/>
      <point x="274" y="49"/>
      <point x="274" y="80" type="curve"/>
      <point x="164" y="80" type="line"/>
      <point x="164" y="49"/>
      <point x="147" y="37"/>
    </contour>
    <contour>
      <point x="556" y="247" type="line"/>
      <point x="676" y="247" type="line" smooth="yes"/>
      <point x="703" y="247"/>
      <point x="715" y="228"/>
      <point x="715" y="186" type="curve"/>
      <point x="747" y="186" type="line"/>
      <point x="747" y="338" type="line"/>
      <point x="715" y="338" type="line"/>
      <point x="715" y="303"/>
      <point x="702" y="286"/>
      <point x="676" y="286" type="curve" smooth="yes"/>
      <point x="556" y="286" type="line"/>
    </contour>
    <contour>
      <point x="495" y="0" type="line"/>
      <point x="761" y="0" type="line" smooth="yes"/>
      <point x="808" y="0"/>
      <point x="824" y="-5"/>
      <point x="830" y="-21" type="curve"/>
      <point x="864" y="-21" type="line"/>
      <point x="864" y="171" type="line"/>
      <point x="831" y="171" type="line"/>
      <point x="818" y="60"/>
      <point x="798" y="39"/>
      <point x="708" y="39" type="curve" smooth="yes"/>
      <point x="604" y="39" type="line"/>
      <point x="604" y="77" type="line"/>
      <point x="495" y="77" type="line"/>
    </contour>
    <contour>
      <point x="675" y="501" type="line" smooth="yes"/>
      <point x="763" y="501"/>
      <point x="785" y="484"/>
      <point x="821" y="388" type="curve"/>
      <point x="854" y="397" type="line"/>
      <point x="813" y="559" type="line"/>
      <point x="780" y="559" type="line"/>
      <point x="779" y="545"/>
      <point x="766" y="540"/>
      <point x="731" y="540" type="curve" smooth="yes"/>
      <point x="495" y="540" type="line"/>
      <point x="495" y="463" type="line"/>
      <point x="604" y="463" type="line"/>
      <point x="604" y="501" type="line"/>
    </contour>
    <contour>
      <point x="434" y="37" type="curve"/>
      <point x="434" y="0" type="line"/>
      <point x="551" y="0" type="line"/>
      <point x="551" y="80" type="line"/>
      <point x="494" y="80" type="line"/>
      <point x="494" y="49"/>
      <point x="477" y="37"/>
    </contour>
    <contour>
      <point x="434" y="501" type="line" smooth="yes"/>
      <point x="477.0" y="501.0"/>
      <point x="494" y="489"/>
      <point x="494" y="458" type="curve" smooth="yes"/>
      <point x="494" y="11" type="line"/>
      <point x="604" y="11" type="line"/>
      <point x="604" y="540" type="line"/>
      <point x="439" y="540" type="line" smooth="yes"/>
      <point x="409" y="540"/>
      <point x="395" y="548"/>
      <point x="393" y="566" type="curve"/>
      <point x="362" y="566" type="line"/>
      <point x="360" y="548"/>
      <point x="354.0" y="540.0"/>
      <point x="324" y="540" type="curve" smooth="yes"/>
      <point x="111" y="540" type="line" smooth="yes"/>
      <point x="81" y="540"/>
      <point x="67" y="548"/>
      <point x="65" y="566" type="curve"/>
      <point x="34" y="566" type="line"/>
      <point x="0" y="374" type="line"/>
      <point x="34" y="365" type="line"/>
      <point x="66" y="481"/>
      <point x="83" y="501"/>
      <point x="147" y="501" type="curve" smooth="yes"/>
    </contour>
  </outline>
</glyph>
<glyph name="t_t" format="2">
  <advance width="750"/>
  <outline>
    <contour>
      <point x="474" y="11" type="line"/>
      <point x="584" y="11" type="line"/>
      <point x="584" y="529" type="line"/>
      <point x="474" y="529" type="line"/>
    </contour>
    <contour>
      <point x="164" y="11" type="line"/>
      <point x="274" y="11" type="line"/>
      <point x="274" y="529" type="line"/>
      <point x="164" y="529" type="line"/>
    </contour>
    <contour>
      <point x="321" y="501" type="line" smooth="yes"/>
      <point x="351" y="501"/>
      <point x="365" y="493"/>
      <point x="367" y="475" type="curve"/>
      <point x="398" y="475" type="line"/>
      <point x="400" y="493"/>
      <point x="414" y="501"/>
      <point x="444" y="501" type="curve" smooth="yes"/>
      <point x="603" y="501" type="line" smooth="yes"/>
      <point x="667" y="501"/>
      <point x="684" y="481"/>
      <point x="716" y="365" type="curve"/>
      <point x="750" y="374" type="line"/>
      <point x="716" y="566" type="line"/>
      <point x="685" y="566" type="line"/>
      <point x="683" y="548"/>
      <point x="669" y="540"/>
      <point x="639" y="540" type="curve" smooth="yes"/>
      <point x="444" y="540" type="line" smooth="yes"/>
      <point x="414" y="540"/>
      <point x="400" y="548"/>
      <point x="398" y="566" type="curve"/>
      <point x="367" y="566" type="line"/>
      <point x="365" y="548"/>
      <point x="359" y="540"/>
      <point x="329" y="540" type="curve" smooth="yes"/>
      <point x="111" y="540" type="line" smooth="yes"/>
      <point x="81" y="540"/>
      <point x="67" y="548"/>
      <point x="65" y="566" type="curve"/>
      <point x="34" y="566" type="line"/>
      <point x="0" y="374" type="line"/>
      <point x="34" y="365" type="line"/>
      <point x="66" y="481"/>
      <point x="83" y="501"/>
      <point x="147" y="501" type="curve" smooth="yes"/>
    </contour>
    <component base="smallcomponent_bottom_serif" xOffset="378"/>
    <component base="smallcomponent_bottom_serif" xOffset="68"/>
  </outline>
</glyph>
